# WaveFront *.obj file (generated by CINEMA 4D)

mtllib ./EvictionNoticeMM.mtl

v -72.671142578125 11.76625347137451 67.99104309082031
v -72.671142578125 12.84209537506104 67.99104309082031
v 60.37144088745117 11.76625347137451 67.99104309082031
v 60.37144088745117 12.84209537506104 67.99104309082031
v 60.37144088745117 11.76625347137451 -26.45864105224609
v 60.37144088745117 12.84209537506104 -26.45864105224609
v -72.671142578125 11.76625347137451 -26.45864105224609
v -72.671142578125 12.84209537506104 -26.45864105224609
v -100.96076965332031 24.61163711547852 93.82424163818359
v -100.96076965332031 24.99573135375977 93.82424163818359
v 33.55398559570312 24.61163711547852 93.82424163818359
v 33.55398559570312 24.99573135375977 93.82424163818359
v 33.55398559570312 32.16788101196289 -92.31486511230469
v 33.55398559570312 32.55197525024414 -92.31486511230469
v -100.96076965332031 32.16788101196289 -92.31486511230469
v -100.96076965332031 32.55197525024414 -92.31486511230469
v 33.55398559570312 14.7208194732666 33.33383560180664
v 33.55398559570312 14.7208194732666 -33.33282852172852
v 33.55398559570312 14.33672523498535 33.33383560180664
v 33.55398559570312 14.33672523498535 -33.33282852172852
v -100.96076965332031 14.33672523498535 33.33383560180664
v -100.96076965332031 14.33672523498535 -33.33282852172852
v -100.96076965332031 14.7208194732666 33.33383560180664
v -100.96076965332031 14.7208194732666 -33.33282852172852
# 24 vertices

vn 0 0 1
vn 1 0 0
vn 0 0 -1
vn -1 0 0
vn 0 1 0
vn 0 -1 0
vn 0 0.9858785867691 -0.16746152937412
vn 0 0.9964634180069 -0.08402793109417
vn 0 -0.9964634180069 0.08402793109417
vn 0 -0.9858785867691 0.16746152937412
vn 0 -0.98924571275711 -0.14626306295395
vn 0 0.98924571275711 0.14626306295395
vn 0 -0.95721423625946 -0.28938022255898
vn 0 0.95721423625946 0.28938022255898
# 14 normals

vt 0 0 0
vt 0 1 0
vt 1 1 0
vt 1 0 0
vt 0.33333334326744 1 0
vt 0.33333334326744 0 0
vt 0.66666668653488 1 0
vt 0.66666668653488 0 0
vt 0 0.33333337306976 0
vt 1 0.33333337306976 0
vt 0 0.66666668653488 0
vt 1 0.66666668653488 0
# 12 texture coordinates

o Cube.2
usemtl default
f 3/4/1 4/3/1 2/2/1 1/1/1
f 5/4/2 6/3/2 4/2/2 3/1/2
f 7/4/3 8/3/3 6/2/3 5/1/3
f 1/4/4 2/3/4 8/2/4 7/1/4
f 4/4/5 6/3/5 8/2/5 2/1/5
f 5/4/6 3/3/6 1/2/6 7/1/6
f 11/4/1 12/3/1 10/2/1 9/1/1
f 19/6/2 17/5/2 12/2/2 11/1/2
f 15/4/3 16/3/3 14/2/3 13/1/3
f 21/8/4 9/4/4 10/3/4 23/7/4
f 12/4/7 17/10/8 23/9/8 10/1/7
f 19/12/9 11/3/10 9/2/10 21/11/9
f 19/6/2 20/8/2 18/7/2 17/5/2
f 21/11/9 22/9/11 20/10/11 19/12/9
f 23/7/4 24/5/4 22/6/4 21/8/4
f 17/10/8 18/12/12 24/11/12 23/9/8
f 20/8/2 13/4/2 14/3/2 18/7/2
f 22/9/11 15/1/13 13/4/13 20/10/11
f 24/5/4 16/2/4 15/1/4 22/6/4
f 18/12/12 14/3/14 16/2/14 24/11/12

