# WaveFront *.obj file (generated by CINEMA 4D)

mtllib ./SafeDoor.mtl

v 78.82846069335938 243.37557983398438 -100
v -75.36123657226562 243.37557983398438 -100
v 78.82846069335938 243.37557983398438 -105.94094848632812
v -75.36123657226562 67.53484344482422 -100
v 78.82846069335938 67.53484344482422 -105.94094848632812
v -75.36123657226562 243.37557983398438 -105.94094848632812
v 78.82846069335938 67.53484344482422 -100
v -75.36123657226562 67.53484344482422 -105.94094848632812
v 49.52834320068359 176.23677062988281 -104.74337768554688
v 21.28520584106445 176.23677062988281 -104.74337768554688
v 21.28520584106445 134.67364501953125 -104.74337768554688
v 49.52834320068359 134.67364501953125 -104.74337768554688
v 49.52834320068359 176.23677062988281 -106.94338226318359
v 21.28520584106445 176.23677062988281 -106.94338226318359
v 21.28520584106445 134.67364501953125 -106.94338226318359
v 49.52834320068359 134.67364501953125 -106.94338226318359
v 47.69883346557617 174.40725708007812 -106.14345550537109
v 23.11471557617188 174.40725708007812 -106.14345550537109
v 23.11471557617188 136.50315856933594 -106.14345550537109
v 47.69883346557617 136.50315856933594 -106.14345550537109
v 49.52834320068359 162.38240051269531 -104.74337768554688
v 49.52834320068359 148.52803039550781 -104.74337768554688
v 78.82846069335938 184.76199340820312 -105.94094848632812
v 78.82846069335938 126.14842224121094 -105.94094848632812
v 78.82846069335938 184.76199340820312 -100
v 78.82846069335938 126.14842224121094 -100
v -75.36123657226562 184.76199340820312 -100
v -75.36123657226562 126.14842224121094 -100
v -75.36123657226562 184.76199340820312 -105.94094848632812
v -75.36123657226562 126.14842224121094 -105.94094848632812
v 21.28520584106445 162.38240051269531 -104.74337768554688
v 21.28520584106445 148.52803039550781 -104.74337768554688
v 21.28520584106445 162.38240051269531 -106.94338226318359
v 21.28520584106445 148.52803039550781 -106.94338226318359
v 23.11471557617188 161.77256774902344 -106.14345550537109
v 23.11471557617188 149.13786315917969 -106.14345550537109
v 47.69883346557617 161.77256774902344 -106.14345550537109
v 47.69883346557617 149.13786315917969 -106.14345550537109
v 49.52834320068359 162.38240051269531 -106.94338226318359
v 49.52834320068359 148.52803039550781 -106.94338226318359
v 62.55293655395508 206.08155822753906 -105.27572631835938
v 62.55293655395508 172.33065795898438 -105.27572631835938
v 62.55293655395508 138.57975769042969 -105.27572631835938
v 62.55293655395508 104.82886505126953 -105.27572631835938
v -21.67641830444336 104.82886505126953 -105.27572631835938
v -21.67641830444336 138.57975769042969 -105.27572631835938
v -21.67641830444336 172.33065795898438 -105.27572631835938
v -21.67641830444336 206.08155822753906 -105.27572631835938
v 59.95261001586914 200.12312316894531 -105.16944885253906
v -13.09923648834229 200.12312316894531 -105.16944885253906
v -13.09923648834229 170.34451293945312 -105.16944885253906
v -13.09923648834229 140.56590270996094 -105.16944885253906
v -13.09923648834229 110.78730773925781 -105.16944885253906
v 59.95261001586914 110.78730773925781 -105.16944885253906
v 59.95261001586914 138.81159973144531 -105.16944885253906
v 59.95261001586914 172.32060241699219 -105.16944885253906
v 62.31089401245117 172.33065795898438 -111.19762420654297
v 62.31089401245117 138.57975769042969 -111.19762420654297
v 59.71056747436523 138.81159973144531 -111.09133911132812
v 59.71056747436523 172.32060241699219 -111.09133911132812
v 59.79020309448242 172.32060241699219 -109.14292144775391
v 59.79020309448242 138.81159973144531 -109.14292144775391
v 62.39052963256836 138.57975769042969 -109.24920654296875
v 62.39052963256836 172.33065795898438 -109.24920654296875
v 59.85626602172852 172.32060241699219 -107.52660369873047
v 59.85626602172852 138.81159973144531 -107.52660369873047
v 62.45659255981445 138.57975769042969 -107.63288879394531
v 62.45659255981445 172.33065795898438 -107.63288879394531
v 61.09036636352539 170.36178588867188 -109.19606781005859
v 59.71056747436523 170.38163757324219 -111.09133911132812
v 62.55293655395508 140.81330871582031 -105.27572631835938
v 59.95261001586914 170.25086975097656 -105.16944885253906
v 51.58539581298828 164.34353637695312 -104.82745361328125
v 51.52048492431641 161.59564208984375 -104.82480621337891
v 62.31089401245117 170.41267395019531 -111.19762420654297
v 59.95261001586914 140.72015380859375 -105.16944885253906
v 60.94210433959961 170.36196899414062 -106.98514556884766
v 62.55293655395508 170.32844543457031 -105.27572631835938
v 59.71056747436523 141.09233093261719 -111.09133911132812
v 62.31089401245117 141.03311157226562 -111.19762420654297
v 61.09036636352539 140.96533203125 -109.19606781005859
v 61.15642929077148 140.88455200195312 -106.9320068359375
# 82 vertices

vn 1 0 0
vn 0 0 -1
vn 0 1 0
vn -1 0 0
vn 0 -1 0
vn 0 0 1
vn 0.00619551632553 -0.00891772378236 -0.99994105100632
vn 0.00619538314641 -0.00891753379256 -0.99994105100632
vn -0.02042386308312 -0.00891922321171 -0.99975162744522
vn -0.02042429707944 -0.00891941320151 -0.99975162744522
vn 0.01239030156285 0 -0.99992322921753
vn 0.01239003520459 0 -0.99992322921753
vn -0.02042429707944 0.00891941320151 -0.99975162744522
vn -0.02042386494577 0.00891921576113 -0.99975162744522
vn 0.00619538314641 0.0089175272733 -0.99994105100632
vn 0.00619551632553 0.00891772378236 -0.99994105100632
vn -0.0408378764987 0 -0.99916577339172
vn -0.04083845019341 0 -0.99916577339172
vn 0.20886319875717 -0.20886285603046 -0.95538079738617
vn -0.20886319875717 -0.20886285603046 -0.95538079738617
vn 0.40061545372009 0 -0.91624629497528
vn -0.20886321365833 0.20886285603046 -0.95538079738617
vn 0.20886321365833 0.20886285603046 -0.95538079738617
vn -0.40061545372009 0 -0.91624629497528
vn 0 0 0
vn 0.01239030249417 0 -0.99992322921753
vn 0.40061548352242 0 -0.91624629497528
vn -0.04083915054798 0.00000077579699 -0.99916571378708
vn -0.04083848372102 0.00000033501837 -0.99916577339172
vn -0.02042397484183 -0.00891928747296 -0.99975162744522
vn -0.02723162248731 -0.0059461966157 -0.99961143732071
vn -0.04083982482553 0.00000075906428 -0.99916571378708
vn -0.04083930328488 0.0000004690622 -0.99916571378708
vn -0.04083818569779 0 -0.99916577339172
vn -0.04083934426308 -0.00000003178362 -0.99916571378708
vn -0.02042452804744 0.00891951657832 -0.99975162744522
vn -0.02042398042977 0.00891926884651 -0.99975162744522
vn 0.00619558617473 0.00891782715917 -0.99994105100632
vn 0.00619541853666 0.00891757942736 -0.99994105100632
vn 0.01239044219255 0 -0.99992322921753
vn 0.01239010691643 0 -0.99992322921753
vn 0.00619558617473 -0.00891782157123 -0.99994105100632
vn 0.00619541853666 -0.00891758315265 -0.99994105100632
vn -0.04083964601159 0 -0.99916571378708
vn -0.08865901827812 -0.99605542421341 0.00362366158515
vn -0.08865901827812 -0.99605542421341 0.00362368579954
vn 0.90826916694641 -0.31063276529312 0.28027555346489
vn 0.88161945343018 -0.45043927431107 0.14089587330818
vn 0.91672652959824 -0.29955697059631 0.26434463262558
vn 0.90343642234802 -0.15285463631153 0.40054723620415
vn -0.00386055232957 0.9999925494194 0.00015778845409
vn -0.00386055232957 0.9999925494194 0.00015778945817
vn -0.89167428016663 -0.30072104930878 0.33835461735725
vn -0.89340269565582 -0.41675701737404 0.16776524484158
vn -0.90154427289963 -0.28759947419167 0.32327145338058
vn -0.8675861954689 -0.15346039831638 0.47301602363586
vn -0.9076434969902 -0.4045501947403 -0.11190339177847
vn -0.92412734031677 -0.28036415576935 -0.25958555936813
vn -0.08865901827812 -0.99605542421341 0.00362373027019
vn 0.92622047662735 0.36068513989449 0.10964445769787
vn 0.90233153104782 0.39613753557205 -0.16992028057575
vn 0.8932900428772 0.27690625190735 -0.35405623912811
vn 0.93410617113113 0.2475341707468 0.25724023580551
vn -0.00386055232957 0.9999925494194 0.00015779130626
vn -0.93535304069519 -0.28387087583542 -0.21102611720562
vn -0.91519469022751 -0.14713728427887 -0.37519237399101
vn -0.08865901082754 -0.99605542421341 0.00362375029363
vn 0.90429252386093 0.29082307219505 -0.31253311038017
vn 0.85049813985825 0.15096893906593 -0.50384646654129
vn -0.0038605525624 0.9999925494194 0.00015779215028
vn -0.04083954915404 0.00000069937767 -0.99916571378708
vn 0.91591227054596 0.11148659139872 0.38558459281921
vn -0.89819544553757 0.28061372041702 0.33837983012199
vn -0.8701947927475 0.14242418110371 0.47167405486107
vn 0.94641816616058 0.2191240042448 0.23722845315933
vn -0.91335517168045 0.15594688057899 -0.37611559033394
vn -0.9254943728447 0.28974494338036 -0.24394261837006
vn -0.04083885252476 -0.00000006356724 -0.99916577339172
vn 0.87457168102264 -0.33269509673119 -0.35275822877884
vn 0.86469489336014 -0.47530883550644 -0.16243216395378
vn 0.8393446803093 -0.17737138271332 -0.51384806632996
vn 0.87862741947174 -0.3456189930439 -0.32948648929596
vn -0.04083964973688 0 -0.99916571378708
vn -0.89280962944031 0.40763747692108 0.19163149595261
vn -0.89908182621002 0.27947020530701 0.33696925640106
vn -0.90328150987625 0.42007383704185 -0.08729514479637
vn -0.92776483297348 0.30765759944916 -0.21118535101414
# 87 normals

vt 0.10585768520832 0.65194761753082 0
vt 0.10585768520832 0.94501549005508 0
vt 0.17221343517303 0.86934220790863 0
vt 0.81045031547546 0.86934220790863 0
vt 0.81045031547546 0.6267232298851 0
vt 0.17221343517303 0.6267232298851 0
vt 0.87680613994598 0.94501549005508 0
vt 0.87680613994598 0.65194761753082 0
vt 0.87680613994598 0.0658118724823 0
vt 0.10585768520832 0.0658118724823 0
vt 0 1 0
vt 1 1 0
vt 1 0.66666668653488 0
vt 0 0.66666668653488 0
vt 0.85989499092102 0.9257298707962 0
vt 0.12276872992516 0.9257298707962 0
vt 0.85989499092102 0.64551907777786 0
vt 0.12276872992516 0.08509767055511 0
vt 0.85989499092102 0.08509767055511 0
vt 0.12276872992516 0.64551907777786 0
vt 0.13630190491676 0.91029632091522 0
vt 0.84636187553406 0.91029632091522 0
vt 0.84636187553406 0.6403746008873 0
vt 0.84636187553406 0.10053110122681 0
vt 0.13630190491676 0.10053110122681 0
vt 0.13630190491676 0.6403746008873 0
vt 0.17221343517303 0.14148533344269 0
vt 0.81045031547546 0.14148533344269 0
vt 0.12276872992516 0.62889605760574 0
vt 0.10585768520832 0.35887980461121 0
vt 1 0.33333337306976 0
vt 0 0.33333337306976 0
vt 0.87680613994598 0.35887980461121 0
vt 0.85989499092102 0.36530840396881 0
vt 0.84636187553406 0.37045288085938 0
vt 0.81045031547546 0.38410437107086 0
vt 0.17221343517303 0.38410437107086 0
vt 0.13630190491676 0.37045288085938 0
vt 0.12276872992516 0.36530840396881 0
vt 1 0 0
vt 0 0 0
vt 0.13416451215744 0.64118713140488 0
vt 0.1254705786705 0.64449203014374 0
vt 0.1254705786705 0.92264860868454 0
vt 0.134231954813 0.6080521941185 0
vt 0.1254705786705 0.62731128931046 0
vt 0.1254705786705 0.36633551120758 0
vt 0.1254705786705 0.08817899227142 0
vt 0.85719311237335 0.08817899227142 0
vt 0.85719311237335 0.36633551120758 0
vt 0.85719311237335 0.64449203014374 0
vt 0.85719311237335 0.92264860868454 0
vt 0.12276872992516 0.62959545850754 0
vt 0.1254705786705 0.62839686870575 0
vt 0.12276872992516 0.62936532497406 0
vt 0.1254705786705 0.62803965806961 0
vt 0.1254705786705 0.62774336338043 0
vt 0.12276872992516 0.38457834720612 0
vt 0.12276872992516 0.38507640361786 0
vt 0.12276872992516 0.38385200500488 0
vt 0.12276872992516 0.38567686080933 0
vt 0.1254705786705 0.38425135612488 0
vt 0.1254705786705 0.38526785373688 0
vt 0.1254705786705 0.38217842578888 0
vt 0.1254705786705 0.38340818881989 0
vt 0.12276872992516 0.62917441129684 0
# 66 texture coordinates

o Cube
usemtl default
f 23/1/1 3/2/1 1/2/1 25/1/1
f 37/6/2 35/5/2 18/4/2 17/3/2
f 6/7/3 2/7/3 1/2/3 3/2/3
f 29/8/4 27/8/4 2/7/4 6/7/4
f 5/10/5 7/10/5 4/9/5 8/9/5
f 27/14/6 25/13/6 1/12/6 2/11/6
f 3/2/10 41/16/9 48/15/8 6/7/7
f 47/17/12 29/8/11 6/7/7 48/15/8
f 8/9/16 45/19/15 44/18/14 5/10/13
f 23/1/18 42/20/17 41/16/9 3/2/10
f 14/22/3 10/22/3 9/21/3 13/21/3
f 33/23/4 31/23/4 10/22/4 14/22/4
f 16/25/5 12/25/5 11/24/5 15/24/5
f 39/26/1 13/21/1 9/21/1 21/26/1
f 13/21/20 17/3/20 18/4/19 14/22/19
f 33/23/21 14/22/19 18/4/19 35/5/21
f 15/24/23 19/28/23 20/27/22 16/25/22
f 39/26/24 37/6/24 17/3/20 13/21/20
f 78/29/18 42/20/17 23/1/18
f 25/1/1 26/30/1 24/30/1 23/1/1
f 27/14/6 28/32/6 26/31/6 25/13/6
f 29/8/4 30/33/4 28/33/4 27/8/4
f 47/17/12 46/34/12 30/33/26 29/8/11
f 33/23/4 34/35/4 32/35/4 31/23/4
f 35/5/21 36/36/27 34/35/27 33/23/21
f 37/6/2 38/37/2 36/36/2 35/5/2
f 39/26/24 40/38/24 38/37/24 37/6/24
f 21/26/1 22/38/1 40/38/1 39/26/1
f 43/39/17 24/30/18 5/10/13 44/18/14
f 26/30/1 7/10/1 5/10/1 24/30/1
f 28/32/6 4/41/6 7/40/6 26/31/6
f 30/33/4 8/9/4 4/9/4 28/33/4
f 46/34/12 45/19/15 8/9/16 30/33/26
f 34/35/4 15/24/4 11/24/4 32/35/4
f 36/36/27 19/28/23 15/24/23 34/35/27
f 38/37/2 20/27/2 19/28/2 36/36/2
f 40/38/24 16/25/22 20/27/22 38/37/24
f 22/38/1 12/25/1 16/25/1 40/38/1
f 9/21/31 49/44/30 56/43/29 73/42/28
f 72/46/33 74/45/32 73/42/28 56/43/29
f 54/48/37 12/25/36 22/38/35 55/47/34
f 53/49/39 11/24/38 12/25/36 54/48/37
f 52/50/41 32/35/40 11/24/38 53/49/39
f 51/51/41 31/23/40 32/35/40 52/50/41
f 50/52/43 10/22/42 31/23/40 51/51/41
f 49/44/30 9/21/31 10/22/42 50/52/43
f 50/52/43 48/15/8 41/16/9 49/44/30
f 51/51/41 47/17/12 48/15/8 50/52/43
f 52/50/41 46/34/12 47/17/12 51/51/41
f 53/49/39 45/19/15 46/34/12 52/50/41
f 54/48/37 44/18/14 45/19/15 53/49/39
f 55/47/34 43/39/17 44/18/14 54/48/37
f 70/54/44 60/43/44 57/20/44 75/53/44
f 49/44/30 41/16/9 42/20/17 56/43/29
f 58/39/45 63/39/46 62/47/46 59/47/45
f 75/53/50 57/20/49 64/20/48 69/55/47
f 60/43/51 61/43/52 64/20/52 57/20/51
f 70/54/56 69/56/55 61/43/54 60/43/53
f 69/56/55 77/57/58 65/43/57 61/43/54
f 63/39/46 67/39/59 66/47/59 62/47/46
f 81/59/63 82/58/62 67/39/61 63/39/60
f 61/43/52 65/43/64 68/20/64 64/20/52
f 77/57/58 72/46/66 56/43/65 65/43/57
f 67/39/59 43/39/67 55/47/67 66/47/59
f 82/58/62 71/60/69 43/39/68 67/39/61
f 65/43/64 56/43/70 42/20/70 68/20/64
f 73/42/28 21/26/71 9/21/31
f 69/55/47 81/59/63 80/61/72 75/53/50
f 70/54/56 79/63/74 81/62/73 69/56/55
f 81/59/63 63/39/60 58/39/75 80/61/72
f 77/57/58 82/65/77 76/64/76 72/46/66
f 74/45/32 22/38/35 21/26/71
f 74/45/32 21/26/71 73/42/28
f 76/64/78 55/47/34 22/38/35
f 75/53/44 80/61/44 79/63/44 70/54/44
f 69/55/47 64/20/48 68/20/80 77/66/79
f 77/66/79 68/20/80 42/20/82 78/29/81
f 24/30/18 43/39/17 71/60/18
f 71/60/18 78/29/18 23/1/18 24/30/18
f 22/38/35 74/45/32 72/46/33 76/64/78
f 80/61/44 58/39/83 59/47/83 79/63/44
f 79/63/74 59/47/85 62/47/84 81/62/73
f 81/62/73 62/47/84 66/47/86 82/65/77
f 82/65/77 66/47/86 55/47/87 76/64/76
f 82/58/62 77/66/79 78/29/81 71/60/69

