# This file uses centimeters as units for non-parametric coordinates.

mtllib KnobUnwraped.mtl
g default
v 0.447742 0.298904 -0.145480
v 0.380872 0.298904 -0.276720
v 0.276719 0.298904 -0.380872
v 0.145480 0.298904 -0.447742
v -0.000000 0.298904 -0.470784
v -0.145480 0.298904 -0.447742
v -0.276720 0.298904 -0.380872
v -0.380872 0.298904 -0.276720
v -0.447742 0.298904 -0.145480
v -0.470784 0.298904 -0.000000
v -0.447742 0.298904 0.145480
v -0.380872 0.298904 0.276719
v -0.276720 0.298904 0.380871
v -0.145480 0.298904 0.447741
v -0.000000 0.298904 0.470784
v 0.145480 0.298904 0.447741
v 0.276719 0.298904 0.380871
v 0.380871 0.298904 0.276719
v 0.447741 0.298904 0.145480
v 0.470784 0.298904 -0.000000
v 0.319299 2.285498 -0.103747
v 0.271612 2.285498 -0.197338
v 0.197338 2.285498 -0.271612
v 0.103747 2.285498 -0.319300
v -0.000000 2.285498 -0.335732
v -0.103747 2.285498 -0.319300
v -0.197338 2.285498 -0.271612
v -0.271612 2.285498 -0.197338
v -0.319299 2.285498 -0.103747
v -0.335732 2.285498 -0.000000
v -0.319299 2.285498 0.103746
v -0.271612 2.285498 0.197338
v -0.197338 2.285498 0.271612
v -0.103746 2.285498 0.319299
v -0.000000 2.285498 0.335731
v 0.103746 2.285498 0.319299
v 0.197338 2.285498 0.271612
v 0.271612 2.285498 0.197338
v 0.319299 2.285498 0.103746
v 0.335731 2.285498 -0.000000
v -0.000000 0.298904 -0.000000
v -0.000000 2.285498 -0.000000
v 0.951057 1.762136 -0.309017
v 0.809018 1.762136 -0.587786
v 0.587786 1.762136 -0.809018
v 0.309017 1.762136 -0.951057
v 0.000000 1.762136 -1.000000
v -0.309017 1.762136 -0.951057
v -0.587785 1.762136 -0.809017
v -0.809017 1.762136 -0.587785
v -0.951057 1.762136 -0.309017
v -1.000000 1.762136 0.000000
v -0.951057 1.762136 0.309017
v -0.809017 1.762136 0.587785
v -0.587785 1.762136 0.809017
v -0.309017 1.762136 0.951057
v -0.000000 1.762136 1.000000
v 0.309017 1.762136 0.951057
v 0.587785 1.762136 0.809017
v 0.809017 1.762136 0.587785
v 0.951057 1.762136 0.309017
v 1.000000 1.762136 0.000000
v 0.447742 1.400701 -0.145480
v 0.380872 1.400701 -0.276720
v 0.276719 1.400701 -0.380872
v 0.145480 1.400701 -0.447742
v -0.000000 1.400701 -0.470784
v -0.145480 1.400701 -0.447742
v -0.276720 1.400701 -0.380872
v -0.380872 1.400701 -0.276720
v -0.447742 1.400701 -0.145480
v -0.470784 1.400701 -0.000000
v -0.447742 1.400701 0.145480
v -0.380872 1.400701 0.276719
v -0.276720 1.400701 0.380871
v -0.145480 1.400701 0.447741
v -0.000000 1.400701 0.470784
v 0.145480 1.400701 0.447741
v 0.276719 1.400701 0.380871
v 0.380871 1.400701 0.276719
v 0.447741 1.400701 0.145480
v 0.470784 1.400701 -0.000000
v 0.951057 1.829148 -0.309017
v 1.000000 1.829148 0.000000
v 0.951057 1.829148 0.309017
v 0.809017 1.829148 0.587785
v 0.587785 1.829148 0.809017
v 0.309017 1.829148 0.951057
v -0.000000 1.829148 1.000000
v -0.309017 1.829148 0.951057
v -0.587785 1.829148 0.809017
v -0.809017 1.829148 0.587785
v -0.951057 1.829148 0.309017
v -1.000000 1.829148 0.000000
v -0.951057 1.829148 -0.309017
v -0.809017 1.829148 -0.587785
v -0.587785 1.829148 -0.809017
v -0.309017 1.829148 -0.951057
v 0.000000 1.829148 -1.000000
v 0.309017 1.829148 -0.951057
v 0.587786 1.829148 -0.809018
v 0.809018 1.829148 -0.587786
v 0.826189 2.166460 -0.268445
v 0.868706 2.166460 -0.000000
v 0.826188 2.166460 0.268445
v 0.702798 2.166460 0.510612
v 0.510612 2.166460 0.702798
v 0.268445 2.166460 0.826188
v -0.000000 2.166460 0.868706
v -0.268445 2.166460 0.826188
v -0.510612 2.166460 0.702798
v -0.702798 2.166460 0.510612
v -0.826188 2.166460 0.268445
v -0.868706 2.166460 -0.000000
v -0.826188 2.166460 -0.268445
v -0.702798 2.166460 -0.510613
v -0.510613 2.166460 -0.702798
v -0.268445 2.166460 -0.826189
v -0.000000 2.166460 -0.868706
v 0.268445 2.166460 -0.826189
v 0.510613 2.166460 -0.702798
v 0.702798 2.166460 -0.510613
v 0.749377 2.225974 -0.243487
v 0.787941 2.225974 -0.000000
v 0.749376 2.225974 0.243487
v 0.637457 2.225974 0.463140
v 0.463140 2.225974 0.637457
v 0.243487 2.225974 0.749376
v -0.000000 2.225974 0.787941
v -0.243487 2.225974 0.749376
v -0.463140 2.225974 0.637457
v -0.637457 2.225974 0.463140
v -0.749376 2.225974 0.243487
v -0.787941 2.225974 -0.000000
v -0.749376 2.225974 -0.243487
v -0.637457 2.225974 -0.463140
v -0.463140 2.225974 -0.637457
v -0.243487 2.225974 -0.749376
v -0.000000 2.225974 -0.787941
v 0.243487 2.225974 -0.749376
v 0.463140 2.225974 -0.637458
v 0.637458 2.225974 -0.463140
vt 0.256383 0.952526
vt 0.300239 0.923606
vt 0.928304 0.509380
vt 0.866072 0.437240
vt 0.333011 0.882548
vt 0.965198 0.597221
vt 0.351490 0.833373
vt 0.973141 0.692163
vt 0.353868 0.780894
vt 0.951356 0.784914
vt 0.339912 0.730251
vt 0.901975 0.866392
vt 0.310990 0.686400
vt 0.829832 0.928624
vt 0.269938 0.653633
vt 0.741990 0.965515
vt 0.220768 0.635151
vt 0.647047 0.973456
vt 0.168291 0.632769
vt 0.554298 0.951668
vt 0.117645 0.646721
vt 0.472822 0.902286
vt 0.073790 0.675640
vt 0.410594 0.830144
vt 0.041018 0.716698
vt 0.373704 0.742304
vt 0.022539 0.765874
vt 0.365764 0.647364
vt 0.020161 0.818351
vt 0.387550 0.554617
vt 0.034115 0.868993
vt 0.436929 0.473142
vt 0.063034 0.912846
vt 0.509068 0.410913
vt 0.104090 0.945616
vt 0.596907 0.374021
vt 0.153263 0.964095
vt 0.691846 0.366078
vt 0.205738 0.966476
vt 0.784595 0.387862
vt 0.500000 0.000000
vt 0.500000 0.000000
vt 0.500000 0.000000
vt 0.500000 0.000000
vt 0.500000 0.000000
vt 0.500000 0.000000
vt 0.500000 0.000000
vt 0.500000 0.000000
vt 0.500000 0.000000
vt 0.500000 0.000000
vt 0.500000 0.000000
vt 0.500000 0.000000
vt 0.500000 0.000000
vt 0.500000 0.000000
vt 0.500000 0.000000
vt 0.500000 0.000000
vt 0.500000 0.000000
vt 0.500000 0.000000
vt 0.500000 0.000000
vt 0.500000 0.000000
vt 0.500000 0.000000
vt 0.722374 0.607875
vt 0.738910 0.627258
vt 0.669453 0.669768
vt 0.748647 0.650802
vt 0.750632 0.676203
vt 0.744670 0.700974
vt 0.731345 0.722689
vt 0.711962 0.739225
vt 0.688417 0.748962
vt 0.663017 0.750946
vt 0.638246 0.744985
vt 0.616530 0.731659
vt 0.599995 0.712276
vt 0.590258 0.688732
vt 0.588274 0.663332
vt 0.594236 0.638561
vt 0.607560 0.616845
vt 0.626943 0.600310
vt 0.650487 0.590573
vt 0.675888 0.588589
vt 0.700658 0.594550
vt 0.215799 0.864629
vt 0.391176 0.467441
vt 0.448946 0.415952
vt 0.487893 0.349254
vt 0.504314 0.273659
vt 0.496594 0.196841
vt 0.465550 0.126241
vt 0.414529 0.068951
vt 0.347969 0.029974
vt 0.272558 0.013449
vt 0.195583 0.021049
vt 0.124860 0.052032
vt 0.067063 0.103463
vt 0.028032 0.170165
vt 0.011554 0.245672
vt 0.019221 0.322277
vt 0.050248 0.392982
vt 0.101551 0.450629
vt 0.168210 0.489658
vt 0.243473 0.506157
vt 0.809996 0.505131
vt 0.752242 0.469758
vt 0.686384 0.453964
vt 0.618869 0.459294
vt 0.556306 0.485226
vt 0.504818 0.529221
vt 0.469445 0.586974
vt 0.453649 0.652831
vt 0.458978 0.720346
vt 0.484909 0.782910
vt 0.528904 0.834400
vt 0.586657 0.869774
vt 0.652515 0.885571
vt 0.720032 0.880242
vt 0.782597 0.854310
vt 0.834087 0.810313
vt 0.869461 0.752559
vt 0.885256 0.686700
vt 0.879926 0.619183
vt 0.853993 0.556619
vt 0.794196 0.523730
vt 0.742962 0.492330
vt 0.684534 0.478299
vt 0.624629 0.483009
vt 0.569112 0.506000
vt 0.523417 0.545022
vt 0.492016 0.596254
vt 0.477984 0.654682
vt 0.482693 0.714587
vt 0.505684 0.770105
vt 0.544705 0.815801
vt 0.595938 0.847203
vt 0.654367 0.861236
vt 0.714273 0.856526
vt 0.769791 0.833535
vt 0.815488 0.794513
vt 0.846889 0.743279
vt 0.860921 0.684849
vt 0.856211 0.624943
vt 0.833219 0.569426
vt 0.223722 0.366542
vt 0.258269 0.373130
vt 0.192006 0.351239
vt 0.167109 0.325911
vt 0.150845 0.294417
vt 0.146134 0.259311
vt 0.150267 0.224661
vt 0.166276 0.193156
vt 0.191102 0.167891
vt 0.222938 0.152372
vt 0.257542 0.146688
vt 0.292227 0.153182
vt 0.323054 0.169709
vt 0.346121 0.195875
vt 0.363892 0.225625
vt 0.370204 0.260095
vt 0.365662 0.295038
vt 0.349506 0.326441
vt 0.325000 0.351778
vt 0.293165 0.367574
vt 0.194302 0.870340
vt 0.320403 0.498510
vt 0.172091 0.869131
vt 0.151342 0.861117
vt 0.134085 0.847084
vt 0.122010 0.828404
vt 0.116295 0.806908
vt 0.117503 0.784698
vt 0.125516 0.763948
vt 0.139550 0.746692
vt 0.158229 0.734616
vt 0.179726 0.728904
vt 0.201935 0.730116
vt 0.222683 0.738132
vt 0.239942 0.752164
vt 0.252020 0.770842
vt 0.257734 0.792338
vt 0.256525 0.814548
vt 0.248512 0.835297
vt 0.234478 0.852554
vt 0.790977 0.372149
vt 0.876998 0.424268
vt 0.693061 0.349162
vt 0.592835 0.357558
vt 0.500108 0.396514
vt 0.423958 0.462216
vt 0.371837 0.548234
vt 0.348848 0.646149
vt 0.357241 0.746375
vt 0.396194 0.839103
vt 0.461895 0.915257
vt 0.547914 0.967380
vt 0.645832 0.990372
vt 0.746062 0.981978
vt 0.838792 0.943023
vt 0.914946 0.877318
vt 0.967069 0.791296
vt 0.990057 0.693378
vt 0.981662 0.593148
vt 0.942703 0.500419
vn 0.624496 -0.754210 -0.202911
vn 0.531228 -0.754210 -0.385960
vn 0.770775 0.303818 -0.560001
vn 0.906101 0.303818 -0.294409
vn 0.385960 -0.754210 -0.531228
vn 0.560001 0.303818 -0.770775
vn 0.202911 -0.754209 -0.624496
vn 0.294410 0.303818 -0.906100
vn 0.000000 -0.754209 -0.656634
vn 0.000000 0.303818 -0.952730
vn -0.202911 -0.754209 -0.624496
vn -0.294410 0.303818 -0.906100
vn -0.385960 -0.754210 -0.531228
vn -0.560001 0.303818 -0.770775
vn -0.531228 -0.754209 -0.385960
vn -0.770775 0.303818 -0.560001
vn -0.624496 -0.754209 -0.202911
vn -0.906100 0.303817 -0.294410
vn -0.656634 -0.754209 0.000000
vn -0.952730 0.303817 0.000000
vn -0.624496 -0.754209 0.202911
vn -0.906100 0.303817 0.294410
vn -0.531228 -0.754210 0.385960
vn -0.770775 0.303817 0.560001
vn -0.385960 -0.754210 0.531228
vn -0.560001 0.303817 0.770775
vn -0.202911 -0.754210 0.624496
vn -0.294410 0.303817 0.906100
vn 0.000000 -0.754210 0.656634
vn 0.000000 0.303818 0.952730
vn 0.202911 -0.754209 0.624496
vn 0.294410 0.303818 0.906100
vn 0.385960 -0.754209 0.531228
vn 0.560001 0.303818 0.770775
vn 0.531228 -0.754209 0.385960
vn 0.770775 0.303818 0.560001
vn 0.624496 -0.754209 0.202911
vn 0.906100 0.303818 0.294410
vn 0.656634 -0.754209 0.000001
vn 0.952730 0.303818 0.000001
vn 0.000000 -1.000000 -0.000000
vn 0.000000 -1.000000 -0.000000
vn 0.000000 -1.000000 -0.000000
vn 0.000000 -1.000000 0.000000
vn 0.000000 -1.000000 0.000000
vn 0.000000 -1.000000 0.000000
vn 0.000000 -1.000000 0.000000
vn 0.000000 -1.000000 0.000000
vn 0.000000 -1.000000 -0.000000
vn 0.000000 -1.000000 -0.000000
vn 0.000000 -1.000000 0.000000
vn 0.000000 -1.000000 0.000000
vn 0.000000 -1.000000 0.000000
vn 0.000000 -1.000000 0.000000
vn 0.000000 -1.000000 0.000000
vn 0.000000 -1.000000 0.000000
vn 0.000000 -1.000000 0.000000
vn 0.000000 -1.000000 0.000000
vn 0.000000 -1.000000 0.000000
vn 0.000000 -1.000000 0.000000
vn 0.000000 -1.000000 0.000000
vn 0.000000 1.000000 0.000000
vn 0.000000 1.000000 -0.000001
vn 0.000000 1.000000 -0.000000
vn 0.000000 1.000000 -0.000000
vn 0.000000 1.000000 0.000000
vn 0.000000 1.000000 0.000000
vn 0.000000 1.000000 0.000000
vn 0.000000 1.000000 0.000000
vn 0.000000 1.000000 0.000000
vn 0.000000 1.000000 0.000000
vn 0.000000 1.000000 0.000000
vn 0.000000 1.000000 0.000000
vn 0.000000 1.000000 -0.000001
vn 0.000000 1.000000 -0.000001
vn 0.000000 1.000000 0.000000
vn 0.000000 1.000000 0.000000
vn 0.000000 1.000000 -0.000000
vn 0.000000 1.000000 -0.000000
vn 0.000000 1.000000 0.000000
vn 0.000000 1.000000 0.000000
vn 0.000000 1.000000 0.000000
vn 0.842963 -0.463028 -0.273896
vn 0.717067 -0.463028 -0.520981
vn 0.520980 -0.463028 -0.717067
vn 0.273896 -0.463028 -0.842963
vn -0.000000 -0.463028 -0.886344
vn -0.273897 -0.463027 -0.842963
vn -0.520980 -0.463028 -0.717067
vn -0.717067 -0.463028 -0.520980
vn -0.842963 -0.463027 -0.273896
vn -0.886344 -0.463028 -0.000000
vn -0.842963 -0.463027 0.273897
vn -0.717067 -0.463028 0.520980
vn -0.520980 -0.463028 0.717067
vn -0.273896 -0.463027 0.842963
vn 0.000000 -0.463028 0.886344
vn 0.273896 -0.463027 0.842963
vn 0.520980 -0.463028 0.717067
vn 0.717067 -0.463028 0.520980
vn 0.842963 -0.463027 0.273897
vn 0.886344 -0.463027 0.000002
vn 0.951056 0.000000 -0.309018
vn 0.809016 -0.000000 -0.587786
vn 0.587785 -0.000000 -0.809017
vn 0.309018 0.000000 -0.951056
vn -0.000000 0.000000 -1.000000
vn -0.309019 0.000000 -0.951056
vn -0.587785 -0.000000 -0.809017
vn -0.809017 -0.000000 -0.587785
vn -0.951056 -0.000000 -0.309018
vn -1.000000 0.000000 0.000000
vn -0.951056 0.000000 0.309019
vn -0.809017 0.000000 0.587785
vn -0.587786 0.000000 0.809017
vn -0.309018 0.000000 0.951056
vn 0.000000 0.000000 1.000000
vn 0.309018 0.000000 0.951056
vn 0.587786 0.000000 0.809017
vn 0.809017 -0.000000 0.587785
vn 0.951056 -0.000000 0.309019
vn 1.000000 -0.000000 0.000002
vn 0.848188 0.452356 -0.275592
vn 0.891838 0.452356 0.000001
vn 0.848188 0.452356 0.275593
vn 0.721512 0.452356 0.524209
vn 0.524209 0.452356 0.721512
vn 0.275593 0.452356 0.848188
vn 0.000000 0.452356 0.891838
vn -0.275593 0.452356 0.848188
vn -0.524209 0.452356 0.721512
vn -0.721512 0.452356 0.524209
vn -0.848188 0.452355 0.275593
vn -0.891838 0.452355 -0.000000
vn -0.848188 0.452355 -0.275593
vn -0.721512 0.452356 -0.524209
vn -0.524209 0.452355 -0.721512
vn -0.275593 0.452356 -0.848188
vn -0.000000 0.452356 -0.891838
vn 0.275593 0.452356 -0.848188
vn 0.524209 0.452356 -0.721512
vn 0.721512 0.452356 -0.524209
vn 0.253787 0.963739 -0.082460
vn 0.266848 0.963739 0.000000
vn 0.253787 0.963739 0.082461
vn 0.215884 0.963739 0.156849
vn 0.156849 0.963739 0.215884
vn 0.082461 0.963739 0.253787
vn 0.000000 0.963739 0.266848
vn -0.082461 0.963739 0.253787
vn -0.156849 0.963739 0.215884
vn -0.215884 0.963739 0.156849
vn -0.253787 0.963739 0.082461
vn -0.266848 0.963739 0.000000
vn -0.253787 0.963739 -0.082461
vn -0.215884 0.963739 -0.156849
vn -0.156849 0.963739 -0.215884
vn -0.082461 0.963739 -0.253787
vn -0.000000 0.963739 -0.266848
vn 0.082460 0.963739 -0.253787
vn 0.156849 0.963739 -0.215884
vn 0.215884 0.963739 -0.156849
vn 0.124115 0.991448 -0.040327
vn 0.130502 0.991448 -0.000000
vn 0.124115 0.991448 0.040328
vn 0.105578 0.991448 0.076707
vn 0.076707 0.991448 0.105578
vn 0.040328 0.991448 0.124115
vn 0.000000 0.991448 0.130502
vn -0.040327 0.991448 0.124115
vn -0.076707 0.991448 0.105579
vn -0.105578 0.991448 0.076707
vn -0.124115 0.991448 0.040328
vn -0.130502 0.991448 -0.000000
vn -0.124115 0.991448 -0.040328
vn -0.105578 0.991448 -0.076707
vn -0.076707 0.991448 -0.105578
vn -0.040328 0.991448 -0.124115
vn -0.000000 0.991448 -0.130502
vn 0.040327 0.991448 -0.124115
vn 0.076707 0.991448 -0.105578
vn 0.105578 0.991448 -0.076707
s 1
g pCylinder1
usemtl initialShadingGroup
f 43/184/1 44/202/2 102/3/3 83/4/4
f 44/202/2 45/201/5 101/6/6 102/3/3
f 45/201/5 46/200/7 100/8/8 101/6/6
f 46/200/7 47/199/9 99/10/10 100/8/8
f 47/199/9 48/198/11 98/12/12 99/10/10
f 48/198/11 49/197/13 97/14/14 98/12/12
f 49/197/13 50/196/15 96/16/16 97/14/14
f 50/196/15 51/195/17 95/18/18 96/16/16
f 51/195/17 52/194/19 94/20/20 95/18/18
f 52/194/19 53/193/21 93/22/22 94/20/20
f 53/193/21 54/192/23 92/24/24 93/22/22
f 54/192/23 55/191/25 91/26/26 92/24/24
f 55/191/25 56/190/27 90/28/28 91/26/26
f 56/190/27 57/189/29 89/30/30 90/28/28
f 57/189/29 58/188/31 88/32/32 89/30/30
f 58/188/31 59/187/33 87/34/34 88/32/32
f 59/187/33 60/186/35 86/36/36 87/34/34
f 60/186/35 61/185/37 85/38/38 86/36/36
f 61/185/37 62/183/39 84/40/40 85/38/38
f 62/183/39 43/184/1 83/4/4 84/40/40
s 2
f 2/41/41 1/42/42 41/43/43
f 3/44/44 2/41/41 41/43/43
f 4/45/45 3/44/44 41/43/43
f 5/46/46 4/45/45 41/43/43
f 6/47/47 5/46/46 41/43/43
f 7/48/48 6/47/47 41/43/43
f 8/49/49 7/48/48 41/43/43
f 9/50/50 8/49/49 41/43/43
f 10/51/51 9/50/50 41/43/43
f 11/52/52 10/51/51 41/43/43
f 12/53/53 11/52/52 41/43/43
f 13/54/54 12/53/53 41/43/43
f 14/55/55 13/54/54 41/43/43
f 15/56/56 14/55/55 41/43/43
f 16/57/57 15/56/56 41/43/43
f 17/58/58 16/57/57 41/43/43
f 18/59/59 17/58/58 41/43/43
f 19/60/60 18/59/59 41/43/43
f 20/61/61 19/60/60 41/43/43
f 1/42/42 20/61/61 41/43/43
s 3
f 21/62/62 22/63/63 42/64/64
f 22/63/63 23/65/65 42/64/64
f 23/65/65 24/66/66 42/64/64
f 24/66/66 25/67/67 42/64/64
f 25/67/67 26/68/68 42/64/64
f 26/68/68 27/69/69 42/64/64
f 27/69/69 28/70/70 42/64/64
f 28/70/70 29/71/71 42/64/64
f 29/71/71 30/72/72 42/64/64
f 30/72/72 31/73/73 42/64/64
f 31/73/73 32/74/74 42/64/64
f 32/74/74 33/75/75 42/64/64
f 33/75/75 34/76/76 42/64/64
f 34/76/76 35/77/77 42/64/64
f 35/77/77 36/78/78 42/64/64
f 36/78/78 37/79/79 42/64/64
f 37/79/79 38/80/80 42/64/64
f 38/80/80 39/81/81 42/64/64
f 39/81/81 40/82/82 42/64/64
f 40/82/82 21/62/62 42/64/64
s 1
f 63/83/83 64/182/84 44/2/2 43/1/1
f 64/182/84 65/181/85 45/5/5 44/2/2
f 65/181/85 66/180/86 46/7/7 45/5/5
f 66/180/86 67/179/87 47/9/9 46/7/7
f 67/179/87 68/178/88 48/11/11 47/9/9
f 68/178/88 69/177/89 49/13/13 48/11/11
f 69/177/89 70/176/90 50/15/15 49/13/13
f 70/176/90 71/175/91 51/17/17 50/15/15
f 71/175/91 72/174/92 52/19/19 51/17/17
f 72/174/92 73/173/93 53/21/21 52/19/19
f 73/173/93 74/172/94 54/23/23 53/21/21
f 74/172/94 75/171/95 55/25/25 54/23/23
f 75/171/95 76/170/96 56/27/27 55/25/25
f 76/170/96 77/169/97 57/29/29 56/27/27
f 77/169/97 78/168/98 58/31/31 57/29/29
f 78/168/98 79/167/99 59/33/33 58/31/31
f 79/167/99 80/166/100 60/35/35 59/33/33
f 80/166/100 81/165/101 61/37/37 60/35/35
f 81/165/101 82/163/102 62/39/39 61/37/37
f 82/163/102 63/83/83 43/1/1 62/39/39
f 1/144/103 2/162/104 64/84/84 63/164/83
f 2/162/104 3/161/105 65/85/85 64/84/84
f 3/161/105 4/160/106 66/86/86 65/85/85
f 4/160/106 5/159/107 67/87/87 66/86/86
f 5/159/107 6/158/108 68/88/88 67/87/87
f 6/158/108 7/157/109 69/89/89 68/88/88
f 7/157/109 8/156/110 70/90/90 69/89/89
f 8/156/110 9/155/111 71/91/91 70/90/90
f 9/155/111 10/154/112 72/92/92 71/91/91
f 10/154/112 11/153/113 73/93/93 72/92/92
f 11/153/113 12/152/114 74/94/94 73/93/93
f 12/152/114 13/151/115 75/95/95 74/94/94
f 13/151/115 14/150/116 76/96/96 75/95/95
f 14/150/116 15/149/117 77/97/97 76/96/96
f 15/149/117 16/148/118 78/98/98 77/97/97
f 16/148/118 17/147/119 79/99/99 78/98/98
f 17/147/119 18/146/120 80/100/100 79/99/99
f 18/146/120 19/145/121 81/101/101 80/100/100
f 19/145/121 20/143/122 82/102/102 81/101/101
f 20/143/122 1/144/103 63/164/83 82/102/102
f 84/40/40 83/4/4 103/103/123 104/104/124
f 85/38/38 84/40/40 104/104/124 105/105/125
f 86/36/36 85/38/38 105/105/125 106/106/126
f 87/34/34 86/36/36 106/106/126 107/107/127
f 88/32/32 87/34/34 107/107/127 108/108/128
f 89/30/30 88/32/32 108/108/128 109/109/129
f 90/28/28 89/30/30 109/109/129 110/110/130
f 91/26/26 90/28/28 110/110/130 111/111/131
f 92/24/24 91/26/26 111/111/131 112/112/132
f 93/22/22 92/24/24 112/112/132 113/113/133
f 94/20/20 93/22/22 113/113/133 114/114/134
f 95/18/18 94/20/20 114/114/134 115/115/135
f 96/16/16 95/18/18 115/115/135 116/116/136
f 97/14/14 96/16/16 116/116/136 117/117/137
f 98/12/12 97/14/14 117/117/137 118/118/138
f 99/10/10 98/12/12 118/118/138 119/119/139
f 100/8/8 99/10/10 119/119/139 120/120/140
f 101/6/6 100/8/8 120/120/140 121/121/141
f 102/3/3 101/6/6 121/121/141 122/122/142
f 83/4/4 102/3/3 122/122/142 103/103/123
f 104/104/124 103/103/123 123/123/143 124/124/144
f 105/105/125 104/104/124 124/124/144 125/125/145
f 106/106/126 105/105/125 125/125/145 126/126/146
f 107/107/127 106/106/126 126/126/146 127/127/147
f 108/108/128 107/107/127 127/127/147 128/128/148
f 109/109/129 108/108/128 128/128/148 129/129/149
f 110/110/130 109/109/129 129/129/149 130/130/150
f 111/111/131 110/110/130 130/130/150 131/131/151
f 112/112/132 111/111/131 131/131/151 132/132/152
f 113/113/133 112/112/132 132/132/152 133/133/153
f 114/114/134 113/113/133 133/133/153 134/134/154
f 115/115/135 114/114/134 134/134/154 135/135/155
f 116/116/136 115/115/135 135/135/155 136/136/156
f 117/117/137 116/116/136 136/136/156 137/137/157
f 118/118/138 117/117/137 137/137/157 138/138/158
f 119/119/139 118/118/138 138/138/158 139/139/159
f 120/120/140 119/119/139 139/139/159 140/140/160
f 121/121/141 120/120/140 140/140/160 141/141/161
f 122/122/142 121/121/141 141/141/161 142/142/162
f 103/103/123 122/122/142 142/142/162 123/123/143
f 124/124/144 123/123/143 21/62/163 40/82/164
f 125/125/145 124/124/144 40/82/164 39/81/165
f 126/126/146 125/125/145 39/81/165 38/80/166
f 127/127/147 126/126/146 38/80/166 37/79/167
f 128/128/148 127/127/147 37/79/167 36/78/168
f 129/129/149 128/128/148 36/78/168 35/77/169
f 130/130/150 129/129/149 35/77/169 34/76/170
f 131/131/151 130/130/150 34/76/170 33/75/171
f 132/132/152 131/131/151 33/75/171 32/74/172
f 133/133/153 132/132/152 32/74/172 31/73/173
f 134/134/154 133/133/153 31/73/173 30/72/174
f 135/135/155 134/134/154 30/72/174 29/71/175
f 136/136/156 135/135/155 29/71/175 28/70/176
f 137/137/157 136/136/156 28/70/176 27/69/177
f 138/138/158 137/137/157 27/69/177 26/68/178
f 139/139/159 138/138/158 26/68/178 25/67/179
f 140/140/160 139/139/159 25/67/179 24/66/180
f 141/141/161 140/140/160 24/66/180 23/65/181
f 142/142/162 141/141/161 23/65/181 22/63/182
f 123/123/143 142/142/162 22/63/182 21/62/163
