# This file uses centimeters as units for non-parametric coordinates.

mtllib Calendar_unwrapped.mtl
g default
v -100.000000 4.850987 -95.794502
v -100.000000 337.288025 -95.794502
v 0.000000 337.288025 -100.000000
v 0.000000 4.850987 -100.000000
v 0.000000 4.850987 -95.794502
v 0.000000 337.288025 -95.794502
v -100.000000 4.850987 -100.000000
v -100.000000 337.288025 -100.000000
v 0.000000 171.069504 -97.115028
v -100.000000 171.069504 -97.115028
v -100.000000 171.069504 -98.679474
v 0.000000 171.069504 -98.679474
v 0.000000 174.845352 -95.794502
v -100.000000 174.845352 -95.794502
v -100.000000 174.845352 -100.000000
v 0.000000 174.845352 -100.000000
v 0.000000 168.484222 -95.794502
v -100.000000 168.484222 -95.794502
v -100.000000 168.484222 -100.000000
v 0.000000 168.484222 -100.000000
v 100.000000 4.850987 -95.794502
v 100.000000 337.288025 -95.794502
v 100.000000 4.850987 -100.000000
v 100.000000 337.288025 -100.000000
v 100.000000 171.069504 -97.115028
v 100.000000 171.069504 -98.679474
v 100.000000 174.845352 -95.794502
v 100.000000 174.845352 -100.000000
v 100.000000 168.484222 -95.794502
v 100.000000 168.484222 -100.000000
vt 0.830461 0.511136
vt 0.830461 0.814056
vt 0.822618 0.814056
vt 0.822618 0.511136
vt 0.825081 0.504095
vt 0.827998 0.504095
vt 0.822618 0.499274
vt 0.830461 0.499274
vt 0.822618 0.194133
vt 0.830461 0.194133
vt 0.867197 0.814056
vt 0.859355 0.814056
vt 0.859355 0.511136
vt 0.867197 0.511136
vt 0.861817 0.504095
vt 0.864735 0.504095
vt 0.859355 0.499274
vt 0.867197 0.499274
vt 0.859355 0.194133
vt 0.867197 0.194133
vt 0.943307 0.502584
vt 0.951149 0.502584
vt 0.951149 0.689062
vt 0.943307 0.689062
vt 0.951149 0.316106
vt 0.943307 0.316106
vt 0.896526 0.501219
vt 0.904369 0.501219
vt 0.904369 0.687698
vt 0.896526 0.687698
vt 0.904369 0.314741
vt 0.896526 0.314741
vt 0.221827 0.511136
vt 0.221827 0.814056
vt 0.035348 0.814056
vt 0.035348 0.511136
vt 0.408305 0.814056
vt 0.408305 0.511136
vt 0.035348 0.504095
vt 0.221827 0.504095
vt 0.408305 0.504095
vt 0.035348 0.499274
vt 0.221827 0.499274
vt 0.408305 0.499274
vt 0.035348 0.194133
vt 0.221827 0.194133
vt 0.408305 0.194133
vt 0.600235 0.497054
vt 0.413757 0.497054
vt 0.413757 0.194133
vt 0.600235 0.194133
vt 0.600235 0.504095
vt 0.413757 0.504095
vt 0.786714 0.194133
vt 0.786714 0.497054
vt 0.786714 0.504095
vt 0.600235 0.508916
vt 0.413757 0.508916
vt 0.786714 0.508916
vt 0.600235 0.814056
vt 0.413757 0.814056
vt 0.786714 0.814056
vn 0.000000 -0.167425 0.985885
vn 0.000000 0.000000 1.000000
vn 0.000000 0.000000 1.000000
vn 0.000000 -0.167425 0.985885
vn 0.000000 -1.000000 0.000000
vn 0.000000 -1.000000 0.000000
vn 0.000000 -1.000000 0.000000
vn 0.000000 -1.000000 0.000000
vn 0.000000 -0.167425 -0.985885
vn 0.000000 -0.167425 -0.985885
vn 0.000000 0.000000 -1.000000
vn 0.000000 0.000000 -1.000000
vn -1.000000 0.000000 0.000000
vn -1.000000 0.000000 0.000000
vn -1.000000 0.000000 0.000000
vn -1.000000 0.000000 0.000000
vn 0.000000 1.000000 0.000000
vn 0.000000 1.000000 0.000000
vn 0.000000 1.000000 0.000000
vn 0.000000 1.000000 0.000000
vn 0.000000 0.454882 0.890552
vn 0.000000 0.233932 0.972253
vn 0.000000 0.233932 0.972253
vn 0.000000 0.454882 0.890552
vn -1.000000 0.000000 0.000000
vn -1.000000 0.000000 0.000000
vn -1.000000 0.000000 0.000000
vn -1.000000 0.000000 0.000000
vn 0.000000 0.454882 -0.890552
vn 0.000000 0.233932 -0.972253
vn 0.000000 0.233932 -0.972253
vn 0.000000 0.454882 -0.890552
vn 0.000000 -0.167425 0.985885
vn 0.000000 -0.330123 0.943938
vn 0.000000 -0.330123 0.943938
vn 0.000000 -0.167425 0.985885
vn -1.000000 0.000000 0.000000
vn -1.000000 0.000000 0.000000
vn -1.000000 0.000000 0.000000
vn -1.000000 0.000000 0.000000
vn 0.000000 -0.167425 -0.985885
vn 0.000000 -0.330123 -0.943938
vn 0.000000 -0.330123 -0.943938
vn 0.000000 -0.167425 -0.985885
vn 0.000000 0.233932 0.972253
vn 0.000000 0.000000 1.000000
vn 0.000000 0.000000 1.000000
vn 0.000000 0.233932 0.972253
vn -1.000000 0.000000 0.000000
vn -1.000000 0.000000 0.000000
vn -1.000000 0.000000 0.000000
vn -1.000000 0.000000 0.000000
vn 0.000000 0.233932 -0.972253
vn 0.000000 0.000000 -1.000000
vn 0.000000 0.000000 -1.000000
vn 0.000000 0.233932 -0.972253
vn 0.000000 0.000000 1.000000
vn 0.000000 0.000000 1.000000
vn 0.000000 -0.167425 0.985885
vn 0.000000 -0.167425 0.985885
vn 0.000000 -1.000000 0.000000
vn 0.000000 -1.000000 0.000000
vn 0.000000 -1.000000 0.000000
vn 0.000000 -1.000000 0.000000
vn 0.000000 0.000000 -1.000000
vn 0.000000 -0.167425 -0.985885
vn 0.000000 -0.167425 -0.985885
vn 0.000000 0.000000 -1.000000
vn 1.000000 0.000000 0.000000
vn 1.000000 0.000000 0.000000
vn 1.000000 0.000000 0.000000
vn 1.000000 0.000000 0.000000
vn 0.000000 1.000000 0.000000
vn 0.000000 1.000000 0.000000
vn 0.000000 1.000000 0.000000
vn 0.000000 1.000000 0.000000
vn 0.000000 0.233932 0.972253
vn 0.000000 0.233932 0.972253
vn 0.000000 0.454882 0.890552
vn 0.000000 0.454882 0.890552
vn 1.000000 0.000000 0.000000
vn 1.000000 0.000000 0.000000
vn 1.000000 0.000000 0.000000
vn 1.000000 0.000000 0.000000
vn 0.000000 0.233932 -0.972253
vn 0.000000 0.233932 -0.972253
vn 0.000000 0.454882 -0.890552
vn 0.000000 0.454882 -0.890552
vn 0.000000 -0.330123 0.943938
vn 0.000000 -0.330123 0.943938
vn 0.000000 -0.167425 0.985885
vn 0.000000 -0.167425 0.985885
vn 1.000000 0.000000 0.000000
vn 1.000000 0.000000 0.000000
vn 1.000000 0.000000 0.000000
vn 1.000000 0.000000 0.000000
vn 0.000000 -0.330123 -0.943938
vn 0.000000 -0.330123 -0.943938
vn 0.000000 -0.167425 -0.985885
vn 0.000000 -0.167425 -0.985885
vn 0.000000 0.000000 1.000000
vn 0.000000 0.000000 1.000000
vn 0.000000 0.233932 0.972253
vn 0.000000 0.233932 0.972253
vn 1.000000 0.000000 0.000000
vn 1.000000 0.000000 0.000000
vn 1.000000 0.000000 0.000000
vn 1.000000 0.000000 0.000000
vn 0.000000 0.000000 -1.000000
vn 0.000000 0.000000 -1.000000
vn 0.000000 0.233932 -0.972253
vn 0.000000 0.233932 -0.972253
s off
g initialShadingGroup Mesh
f 13/33/1 6/34/2 2/35/3 14/36/4
f 4/21/5 5/22/6 1/23/7 7/24/8
f 16/48/9 15/49/10 8/50/11 3/51/12
f 14/1/13 2/2/14 8/3/15 15/4/16
f 6/27/17 3/28/18 8/29/19 2/30/20
f 10/39/21 18/42/22 17/43/23 9/40/24
f 11/5/25 19/7/26 18/8/27 10/6/28
f 12/52/29 20/57/30 19/58/31 11/53/32
f 14/36/33 10/39/34 9/40/35 13/33/36
f 15/4/37 11/5/38 10/6/39 14/1/40
f 16/48/41 12/52/42 11/53/43 15/49/44
f 18/42/45 1/45/46 5/46/47 17/43/48
f 19/7/49 7/9/50 1/10/51 18/8/52
f 20/57/53 4/60/54 7/61/55 19/58/56
f 22/37/57 6/34/58 13/33/59 27/38/60
f 21/25/61 5/22/62 4/21/63 23/26/64
f 24/54/65 28/55/66 16/48/67 3/51/68
f 24/11/69 22/12/70 27/13/71 28/14/72
f 24/31/73 3/28/74 6/27/75 22/32/76
f 17/43/77 29/44/78 25/41/79 9/40/80
f 29/17/81 30/18/82 26/16/83 25/15/84
f 30/59/85 20/57/86 12/52/87 26/56/88
f 9/40/89 25/41/90 27/38/91 13/33/92
f 25/15/93 26/16/94 28/14/95 27/13/96
f 26/56/97 12/52/98 16/48/99 28/55/100
f 5/46/101 21/47/102 29/44/103 17/43/104
f 21/19/105 23/20/106 30/18/107 29/17/108
f 23/62/109 4/60/110 20/57/111 30/59/112
