# This file uses centimeters as units for non-parametric coordinates.

mtllib ceilingFanBlades.mtl
g default
v 0.663791 -2.064220 0.224916
v 3.489603 -2.064220 0.545273
v 0.663791 -2.005957 0.224916
v 3.489603 -2.005957 0.545273
v 0.663791 -2.005957 -0.224916
v 3.489603 -1.915780 -0.545273
v 0.663791 -2.064220 -0.224916
v 3.489603 -1.974043 -0.545273
v 4.014298 -1.974043 -0.481109
v 4.014298 -2.064220 0.481109
v 4.014298 -1.915780 -0.481109
v 4.014298 -2.005957 0.481109
v 4.422339 -1.991482 -0.308796
v 4.422339 -2.064220 0.308796
v 4.422339 -1.933219 -0.308796
v 4.422339 -2.005957 0.308796
v 4.614135 -2.015849 -0.097314
v 4.614135 -2.033573 0.104510
v 4.614135 -1.957586 -0.097314
v 4.614135 -1.975310 0.104510
vt 0.375000 0.000000
vt 0.625000 0.000000
vt 0.375000 0.250000
vt 0.625000 0.250000
vt 0.375000 0.500000
vt 0.625000 0.500000
vt 0.375000 0.750000
vt 0.625000 0.750000
vt 0.375000 1.000000
vt 0.625000 1.000000
vt 0.875000 0.000000
vt 0.875000 0.250000
vt 0.125000 0.000000
vt 0.125000 0.250000
vt 0.625000 0.000000
vt 0.875000 0.000000
vt 0.875000 0.250000
vt 0.625000 0.250000
vt 0.625000 0.000000
vt 0.875000 0.000000
vt 0.875000 0.250000
vt 0.625000 0.250000
vt 0.625000 0.000000
vt 0.875000 0.000000
vt 0.875000 0.250000
vt 0.625000 0.250000
vn -0.112647 0.000000 0.993635
vn -0.076241 0.000000 0.997089
vn -0.076241 0.000000 0.997089
vn -0.112647 0.000000 0.993635
vn -0.015927 0.998164 0.058434
vn -0.012779 0.997856 0.064191
vn -0.012774 0.997855 0.064199
vn -0.015927 0.998164 0.058434
vn -0.112647 0.000000 -0.993635
vn -0.075608 0.000000 -0.997138
vn -0.076854 0.000000 -0.997042
vn -0.112647 0.000000 -0.993635
vn 0.015927 -0.998164 -0.058434
vn 0.012774 -0.997855 -0.064199
vn 0.012779 -0.997856 -0.064191
vn 0.015927 -0.998164 -0.058434
vn 1.000000 0.000000 0.000000
vn 1.000000 0.000000 0.000000
vn 1.000000 0.000000 0.000000
vn 1.000000 0.000000 0.000000
vn -1.000000 0.000000 0.000000
vn -1.000000 0.000000 0.000000
vn -1.000000 0.000000 0.000000
vn -1.000000 0.000000 0.000000
vn -0.006226 -0.995746 -0.091932
vn -0.006240 -0.995745 -0.091942
vn 0.244051 0.000001 -0.969762
vn 0.247420 0.000001 -0.968908
vn 0.006240 0.995745 0.091942
vn 0.006226 0.995746 0.091932
vn 0.245755 0.000000 0.969332
vn 0.245755 0.000000 0.969332
vn -0.017961 -0.994503 -0.103157
vn -0.017889 -0.994503 -0.103170
vn 0.531886 0.000001 -0.846816
vn 0.545905 0.000001 -0.837847
vn 0.017889 0.994503 0.103170
vn 0.017960 0.994503 0.103157
vn 0.525660 0.000000 0.850695
vn 0.537451 0.000000 0.843295
vn 0.018327 -0.993794 -0.109713
vn 0.018327 -0.993794 -0.109713
vn 0.740743 0.000000 -0.671788
vn 0.740743 0.000000 -0.671788
vn -0.018327 0.993794 0.109713
vn -0.018327 0.993794 0.109713
vn 0.729044 0.000000 0.684467
vn 0.729044 0.000000 0.684467
s 1
g pCube1
usemtl initialShadingGroup
f 1/1/1 2/2/2 4/4/3 3/3/4
s 2
f 3/3/5 4/4/6 6/6/7 5/5/8
s 3
f 5/5/9 6/6/10 8/8/11 7/7/12
s 4
f 7/7/13 8/8/14 2/10/15 1/9/16
s off
f 18/23/17 17/24/18 19/25/19 20/26/20
f 7/13/21 1/1/22 3/3/23 5/14/24
s 4
f 2/2/15 8/11/14 9/16/25 10/15/26
s 3
f 8/11/11 6/12/10 11/17/27 9/16/28
s 2
f 6/12/7 4/4/6 12/18/29 11/17/30
s 1
f 4/4/3 2/2/2 10/15/31 12/18/32
s 4
f 10/15/26 9/16/25 13/20/33 14/19/34
s 3
f 9/16/28 11/17/27 15/21/35 13/20/36
s 2
f 11/17/30 12/18/29 16/22/37 15/21/38
s 1
f 12/18/32 10/15/31 14/19/39 16/22/40
s 4
f 14/19/34 13/20/33 17/24/41 18/23/42
s 3
f 13/20/36 15/21/35 19/25/43 17/24/44
s 2
f 15/21/38 16/22/37 20/26/45 19/25/46
s 1
f 16/22/40 14/19/39 18/23/47 20/26/48
g default
v -0.665880 -2.060215 -0.233973
v -3.493132 -2.060215 -0.541366
v -0.665880 -2.001952 -0.233973
v -3.493132 -2.001952 -0.541366
v -0.663817 -2.001952 0.215853
v -3.488130 -1.911775 0.549169
v -0.663817 -2.060215 0.215853
v -3.488130 -1.970038 0.549169
v -4.013114 -1.970038 0.487412
v -4.017528 -2.060215 -0.474795
v -4.013114 -1.911775 0.487412
v -4.017528 -2.001952 -0.474795
v -4.421941 -1.987477 0.316973
v -4.424774 -2.060215 -0.300613
v -4.421941 -1.929214 0.316973
v -4.424774 -2.001952 -0.300613
v -4.614705 -2.011844 0.106373
v -4.615631 -2.029568 -0.095449
v -4.614705 -1.953581 0.106373
v -4.615631 -1.971305 -0.095449
vt 0.375000 0.000000
vt 0.625000 0.000000
vt 0.375000 0.250000
vt 0.625000 0.250000
vt 0.375000 0.500000
vt 0.625000 0.500000
vt 0.375000 0.750000
vt 0.625000 0.750000
vt 0.375000 1.000000
vt 0.625000 1.000000
vt 0.875000 0.000000
vt 0.875000 0.250000
vt 0.125000 0.000000
vt 0.125000 0.250000
vt 0.625000 0.000000
vt 0.875000 0.000000
vt 0.875000 0.250000
vt 0.625000 0.250000
vt 0.625000 0.000000
vt 0.875000 0.000000
vt 0.875000 0.250000
vt 0.625000 0.250000
vt 0.625000 0.000000
vt 0.875000 0.000000
vt 0.875000 0.250000
vt 0.625000 0.250000
vn 0.108088 0.000000 -0.994141
vn 0.071667 0.000000 -0.997429
vn 0.071667 0.000000 -0.997429
vn 0.108088 0.000000 -0.994141
vn 0.015658 0.998164 -0.058507
vn 0.012484 0.997856 -0.064249
vn 0.012480 0.997855 -0.064257
vn 0.015658 0.998164 -0.058507
vn 0.117203 0.000000 0.993108
vn 0.080181 0.000000 0.996780
vn 0.081426 0.000000 0.996679
vn 0.117203 0.000000 0.993108
vn -0.015658 -0.998164 0.058507
vn -0.012480 -0.997855 0.064257
vn -0.012484 -0.997856 0.064249
vn -0.015658 -0.998164 0.058507
vn -0.999990 0.000000 0.004587
vn -0.999990 0.000000 0.004587
vn -0.999990 0.000000 0.004587
vn -0.999990 0.000000 0.004587
vn 0.999990 0.000000 -0.004587
vn 0.999990 0.000000 -0.004587
vn 0.999990 0.000000 -0.004587
vn 0.999990 0.000000 -0.004587
vn 0.006648 -0.995746 0.091903
vn 0.006662 -0.995745 0.091912
vn -0.239600 0.000001 0.970872
vn -0.242973 0.000001 0.970033
vn -0.006662 0.995745 -0.091912
vn -0.006648 0.995746 -0.091903
vn -0.250199 0.000000 -0.968195
vn -0.250199 0.000000 -0.968195
vn 0.018433 -0.994503 0.103074
vn 0.018363 -0.994503 0.103087
vn -0.527996 0.000001 0.849247
vn -0.542056 0.000001 0.840342
vn -0.018363 0.994503 -0.103087
vn -0.018433 0.994503 -0.103074
vn -0.529557 0.000000 -0.848274
vn -0.541313 0.000000 -0.840821
vn -0.017823 -0.993794 0.109796
vn -0.017823 -0.993794 0.109795
vn -0.737654 0.000000 0.675179
vn -0.737654 0.000000 0.675179
vn 0.017823 0.993794 -0.109795
vn 0.017823 0.993794 -0.109795
vn -0.732176 0.000000 -0.681116
vn -0.732176 0.000000 -0.681116
s 1
g pasted__pCube1 group
usemtl initialShadingGroup
f 21/27/49 22/28/50 24/30/51 23/29/52
s 2
f 23/29/53 24/30/54 26/32/55 25/31/56
s 3
f 25/31/57 26/32/58 28/34/59 27/33/60
s 4
f 27/33/61 28/34/62 22/36/63 21/35/64
s off
f 38/49/65 37/50/66 39/51/67 40/52/68
f 27/39/69 21/27/70 23/29/71 25/40/72
s 4
f 22/28/63 28/37/62 29/42/73 30/41/74
s 3
f 28/37/59 26/38/58 31/43/75 29/42/76
s 2
f 26/38/55 24/30/54 32/44/77 31/43/78
s 1
f 24/30/51 22/28/50 30/41/79 32/44/80
s 4
f 30/41/74 29/42/73 33/46/81 34/45/82
s 3
f 29/42/76 31/43/75 35/47/83 33/46/84
s 2
f 31/43/78 32/44/77 36/48/85 35/47/86
s 1
f 32/44/80 30/41/79 34/45/87 36/48/88
s 4
f 34/45/82 33/46/81 37/50/89 38/49/90
s 3
f 33/46/84 35/47/83 39/51/91 37/50/92
s 2
f 35/47/86 36/48/85 40/52/93 39/51/94
s 1
f 36/48/88 34/45/87 38/49/95 40/52/96
g default
v 0.213013 -2.064220 -0.668892
v 0.490373 -2.064220 -3.499248
v 0.213013 -2.005957 -0.668892
v 0.490373 -2.005957 -3.499248
v -0.236767 -2.005957 -0.662053
v -0.600048 -1.915780 -3.482668
v -0.236767 -2.064220 -0.662053
v -0.600048 -1.974043 -3.482668
v -0.543868 -1.974043 -4.008279
v 0.418239 -2.064220 -4.022907
v -0.543868 -1.915780 -4.008279
v 0.418239 -2.005957 -4.022907
v -0.377779 -1.991482 -4.418892
v 0.239743 -2.064220 -4.428281
v -0.377779 -1.933219 -4.418892
v 0.239743 -2.005957 -4.428281
v -0.169237 -2.015849 -4.613881
v 0.032564 -2.033573 -4.616949
v -0.169237 -1.957586 -4.613881
v 0.032564 -1.975310 -4.616949
vt 0.375000 0.000000
vt 0.625000 0.000000
vt 0.375000 0.250000
vt 0.625000 0.250000
vt 0.375000 0.500000
vt 0.625000 0.500000
vt 0.375000 0.750000
vt 0.625000 0.750000
vt 0.375000 1.000000
vt 0.625000 1.000000
vt 0.875000 0.000000
vt 0.875000 0.250000
vt 0.125000 0.000000
vt 0.125000 0.250000
vt 0.625000 0.000000
vt 0.875000 0.000000
vt 0.875000 0.250000
vt 0.625000 0.250000
vt 0.625000 0.000000
vt 0.875000 0.000000
vt 0.875000 0.250000
vt 0.625000 0.250000
vt 0.625000 0.000000
vt 0.875000 0.000000
vt 0.875000 0.250000
vt 0.625000 0.250000
vn 0.995233 0.000000 0.097528
vn 0.998133 0.000000 0.061074
vn 0.998133 0.000000 0.061074
vn 0.995233 0.000000 0.097528
vn 0.058670 0.998164 0.015036
vn 0.064378 0.997856 0.011801
vn 0.064386 0.997855 0.011797
vn 0.058670 0.998164 0.015036
vn -0.991808 0.000000 0.127740
vn -0.995873 0.000000 0.090759
vn -0.995759 0.000000 0.092003
vn -0.991808 0.000000 0.127740
vn -0.058670 -0.998164 -0.015036
vn -0.064386 -0.997855 -0.011797
vn -0.064378 -0.997856 -0.011801
vn -0.058670 -0.998164 -0.015036
vn -0.015203 0.000000 -0.999884
vn -0.015203 0.000000 -0.999884
vn -0.015203 0.000000 -0.999884
vn -0.015203 0.000000 -0.999884
vn 0.015203 0.000000 0.999884
vn 0.015203 0.000000 0.999884
vn 0.015203 0.000000 0.999884
vn 0.015203 0.000000 0.999884
vn -0.091827 -0.995746 0.007623
vn -0.091837 -0.995745 0.007637
vn -0.973361 0.000001 -0.229279
vn -0.972558 0.000001 -0.232661
vn 0.091836 0.995745 -0.007637
vn 0.091827 0.995746 -0.007623
vn 0.965484 0.000000 -0.260463
vn 0.965484 0.000000 -0.260463
vn -0.102872 -0.994503 0.019527
vn -0.102886 -0.994503 0.019456
vn -0.854805 0.000001 -0.518950
vn -0.846050 0.000001 -0.533104
vn 0.102886 0.994503 -0.019456
vn 0.102872 0.994503 -0.019527
vn 0.842605 0.000000 -0.538533
vn 0.835027 0.000000 -0.550209
vn -0.109979 -0.993794 -0.016657
vn -0.109979 -0.993794 -0.016657
vn -0.682972 0.000000 -0.730445
vn -0.682972 0.000000 -0.730445
vn 0.109979 0.993794 0.016657
vn 0.109979 0.993794 0.016657
vn 0.673305 0.000000 -0.739365
vn 0.673305 0.000000 -0.739365
s 1
g pasted__pCube1 group1
usemtl initialShadingGroup
f 41/53/97 42/54/98 44/56/99 43/55/100
s 2
f 43/55/101 44/56/102 46/58/103 45/57/104
s 3
f 45/57/105 46/58/106 48/60/107 47/59/108
s 4
f 47/59/109 48/60/110 42/62/111 41/61/112
s off
f 58/75/113 57/76/114 59/77/115 60/78/116
f 47/65/117 41/53/118 43/55/119 45/66/120
s 4
f 42/54/111 48/63/110 49/68/121 50/67/122
s 3
f 48/63/107 46/64/106 51/69/123 49/68/124
s 2
f 46/64/103 44/56/102 52/70/125 51/69/126
s 1
f 44/56/99 42/54/98 50/67/127 52/70/128
s 4
f 50/67/122 49/68/121 53/72/129 54/71/130
s 3
f 49/68/124 51/69/123 55/73/131 53/72/132
s 2
f 51/69/126 52/70/125 56/74/133 55/73/134
s 1
f 52/70/128 50/67/127 54/71/135 56/74/136
s 4
f 54/71/130 53/72/129 57/76/137 58/75/138
s 3
f 53/72/132 55/73/131 59/77/139 57/76/140
s 2
f 55/73/134 56/74/133 60/78/141 59/77/142
s 1
f 56/74/136 54/71/135 58/75/143 60/78/144
g default
v -0.225609 -2.060215 0.667602
v -0.489983 -2.060215 3.499200
v -0.225609 -2.001952 0.667602
v -0.489983 -2.001952 3.499200
v 0.224135 -2.001952 0.658700
v 0.600350 -1.911775 3.477619
v 0.224135 -2.060215 0.658700
v 0.600350 -1.970038 3.477619
v 0.546582 -1.970038 4.003482
v -0.415447 -2.060215 4.022523
v 0.546582 -1.911775 4.003482
v -0.415447 -2.001952 4.022523
v 0.382378 -1.987477 4.414853
v -0.235094 -2.060215 4.427074
v 0.382378 -1.929214 4.414853
v -0.235094 -2.001952 4.427074
v 0.174732 -2.011844 4.610796
v -0.027052 -2.029568 4.614790
v 0.174732 -1.953581 4.610796
v -0.027052 -1.971305 4.614790
vt 0.375000 0.000000
vt 0.625000 0.000000
vt 0.375000 0.250000
vt 0.625000 0.250000
vt 0.375000 0.500000
vt 0.625000 0.500000
vt 0.375000 0.750000
vt 0.625000 0.750000
vt 0.375000 1.000000
vt 0.625000 1.000000
vt 0.875000 0.000000
vt 0.875000 0.250000
vt 0.125000 0.000000
vt 0.125000 0.250000
vt 0.625000 0.000000
vt 0.875000 0.000000
vt 0.875000 0.250000
vt 0.625000 0.250000
vt 0.625000 0.000000
vt 0.875000 0.000000
vt 0.875000 0.250000
vt 0.625000 0.250000
vt 0.625000 0.000000
vt 0.875000 0.000000
vt 0.875000 0.250000
vt 0.625000 0.250000
vn -0.995670 0.000000 -0.092961
vn -0.998403 0.000000 -0.056495
vn -0.998403 0.000000 -0.056495
vn -0.995670 0.000000 -0.092961
vn -0.058738 0.998164 -0.014767
vn -0.064431 0.997856 -0.011506
vn -0.064439 0.997855 -0.011501
vn -0.058738 0.998164 -0.014767
vn 0.991211 0.000000 -0.132288
vn 0.995446 0.000000 -0.095326
vn 0.995326 0.000000 -0.096569
vn 0.991211 0.000000 -0.132288
vn 0.058738 -0.998164 0.014767
vn 0.064439 -0.997855 0.011501
vn 0.064431 -0.997856 0.011506
vn 0.058738 -0.998164 0.014767
vn 0.019789 0.000000 0.999804
vn 0.019789 0.000000 0.999804
vn 0.019789 0.000000 0.999804
vn 0.019789 0.000000 0.999804
vn -0.019789 0.000000 -0.999804
vn -0.019789 0.000000 -0.999804
vn -0.019789 0.000000 -0.999804
vn -0.019789 0.000000 -0.999804
vn 0.091791 -0.995746 -0.008044
vn 0.091801 -0.995745 -0.008058
vn 0.974402 0.000001 0.224812
vn 0.973615 0.000001 0.228198
vn -0.091800 0.995745 0.008058
vn -0.091791 0.995746 0.008044
vn -0.964279 0.000000 0.264889
vn -0.964279 0.000000 0.264889
vn 0.102781 -0.994503 -0.019998
vn 0.102796 -0.994503 -0.019928
vn 0.857176 0.000001 0.515024
vn 0.848486 0.000001 0.529218
vn -0.102796 0.994503 0.019928
vn -0.102781 0.994503 0.019998
vn -0.840126 0.000000 0.542392
vn -0.832494 0.000000 0.554034
vn 0.110054 -0.993794 0.016152
vn 0.110054 -0.993794 0.016152
vn 0.686315 0.000000 0.727304
vn 0.686315 0.000000 0.727304
vn -0.110054 0.993794 -0.016152
vn -0.110054 0.993794 -0.016152
vn -0.669906 0.000000 0.742446
vn -0.669906 0.000000 0.742446
s 1
g group1 pasted__pasted__pCube1 pasted__group
usemtl initialShadingGroup
f 61/79/145 62/80/146 64/82/147 63/81/148
s 2
f 63/81/149 64/82/150 66/84/151 65/83/152
s 3
f 65/83/153 66/84/154 68/86/155 67/85/156
s 4
f 67/85/157 68/86/158 62/88/159 61/87/160
s off
f 78/101/161 77/102/162 79/103/163 80/104/164
f 67/91/165 61/79/166 63/81/167 65/92/168
s 4
f 62/80/159 68/89/158 69/94/169 70/93/170
s 3
f 68/89/155 66/90/154 71/95/171 69/94/172
s 2
f 66/90/151 64/82/150 72/96/173 71/95/174
s 1
f 64/82/147 62/80/146 70/93/175 72/96/176
s 4
f 70/93/170 69/94/169 73/98/177 74/97/178
s 3
f 69/94/172 71/95/171 75/99/179 73/98/180
s 2
f 71/95/174 72/96/173 76/100/181 75/99/182
s 1
f 72/96/176 70/93/175 74/97/183 76/100/184
s 4
f 74/97/178 73/98/177 77/102/185 78/101/186
s 3
f 73/98/180 75/99/179 79/103/187 77/102/188
s 2
f 75/99/182 76/100/181 80/104/189 79/103/190
s 1
f 76/100/184 74/97/183 78/101/191 80/104/192
