# Blender v2.82 (sub 7) OBJ File: 'Dumpster_Lid.blend'
# www.blender.org
mtllib Dumpster_Lid.mtl
o Cube.001
v -1.062771 -0.350958 0.995052
v -0.983249 -0.158911 0.995052
v -1.062771 -0.350958 -0.504948
v -0.983249 -0.158911 -0.504948
v 0.994539 0.140006 0.995052
v 0.978035 0.238635 0.995052
v 0.994539 0.140006 -0.504948
v 0.978035 0.238635 -0.504948
v -1.062771 -0.350958 0.245052
v -0.994539 -0.091440 0.245052
v 0.994539 0.140006 0.245052
v 0.978035 0.238635 0.245052
v -1.062771 -0.350958 0.620052
v 0.978035 0.238635 0.620052
v -0.983249 -0.158911 0.620052
v 0.994539 0.140006 0.620052
v -0.983249 -0.158911 -0.129948
v 0.994539 0.140006 -0.129948
v -1.062771 -0.350958 -0.129948
v 0.978035 0.238635 -0.129948
v -1.062771 -0.350958 0.052038
v 0.978035 0.238635 0.052038
v -0.994539 -0.091440 0.052038
v 0.994539 0.140006 0.052038
v -0.994539 -0.091440 0.432552
v 0.994539 0.140006 0.432552
v -1.062771 -0.350958 0.432552
v 0.978035 0.238635 0.432552
v 0.008811 -0.024938 -0.504948
v 0.003597 0.006220 -0.504948
v 0.008811 -0.024938 0.995052
v 0.003597 0.006220 0.995052
v -0.007693 0.073691 0.245052
v 0.008811 -0.024938 0.245052
v 0.003597 0.006220 0.620052
v 0.008811 -0.024938 0.620052
v 0.008811 -0.024938 -0.129948
v 0.003597 0.006220 -0.129948
v 0.008811 -0.024938 0.052038
v -0.007693 0.073691 0.052038
v 0.008811 -0.024938 0.432552
v -0.007693 0.073691 0.432552
v 0.485171 0.156163 -0.504948
v 0.501675 0.057534 0.995052
v 0.485171 0.156163 0.245052
v 0.485171 0.156163 0.620052
v 0.485171 0.156163 -0.129948
v 0.485171 0.156163 0.052038
v 0.485171 0.156163 0.432552
v 0.501675 0.057534 -0.504948
v 0.485171 0.156163 0.995052
v 0.501675 0.057534 0.245052
v 0.501675 0.057534 0.620052
v 0.501675 0.057534 -0.129948
v 0.501675 0.057534 0.052038
v 0.501675 0.057534 0.432552
v -0.985623 -0.144723 0.052038
v -0.985623 -0.144723 -0.129948
v -0.985623 -0.144723 0.620052
v -0.985623 -0.144723 0.432552
v 0.001223 0.020408 0.620052
v 0.001223 0.020408 -0.129948
v 0.001223 0.020408 0.052038
v 0.001223 0.020408 0.432552
v 0.494087 0.102880 0.620052
v 0.494087 0.102880 -0.129948
v 0.494087 0.102880 0.052038
v 0.494087 0.102880 0.432552
v -0.883298 -0.174216 -0.504948
v -0.888511 -0.143058 0.995052
v -0.883298 -0.174216 0.245052
v -0.883298 -0.174216 0.620052
v -0.883298 -0.174216 -0.129948
v -0.883298 -0.174216 0.052038
v -0.883298 -0.174216 0.432552
v -0.888511 -0.143058 -0.504948
v -0.883298 -0.174216 0.995052
v -0.899801 -0.075587 0.245052
v -0.888511 -0.143058 0.620052
v -0.888511 -0.143058 -0.129948
v -0.899801 -0.075587 0.052038
v -0.899801 -0.075587 0.432552
v -0.890885 -0.128871 0.620052
v -0.890885 -0.128871 -0.129948
v -0.890885 -0.128871 0.052038
v -0.890885 -0.128871 0.432552
vt 0.375000 0.187500
vt 0.625000 0.187500
vt 0.625000 0.250000
vt 0.375000 0.250000
vt 0.375000 0.437535
vt 0.625000 0.437535
vt 0.625000 0.500000
vt 0.375000 0.500000
vt 0.375000 0.687500
vt 0.625000 0.687500
vt 0.625000 0.750000
vt 0.375000 0.750000
vt 0.375000 0.937597
vt 0.625000 0.937597
vt 0.625000 1.000000
vt 0.375000 1.000000
vt 0.312535 0.687500
vt 0.312535 0.750000
vt 0.812597 0.687500
vt 0.875000 0.687500
vt 0.875000 0.750000
vt 0.812597 0.750000
vt 0.812597 0.592831
vt 0.875000 0.592831
vt 0.875000 0.625000
vt 0.812597 0.625000
vt 0.312535 0.592831
vt 0.375000 0.592831
vt 0.375000 0.625000
vt 0.312535 0.625000
vt 0.625000 0.592831
vt 0.625000 0.625000
vt 0.375000 0.093750
vt 0.625000 0.093750
vt 0.625000 0.125000
vt 0.375000 0.125000
vt 0.375000 0.000000
vt 0.625000 0.000000
vt 0.625000 0.062500
vt 0.375000 0.062500
vt 0.749929 0.687500
vt 0.749929 0.687500
vt 0.812597 0.687500
vt 0.312535 0.656250
vt 0.375000 0.656250
vt 0.625000 0.656250
vt 0.625000 0.562500
vt 0.375000 0.562500
vt 0.312535 0.500000
vt 0.312535 0.562500
vt 0.812597 0.500000
vt 0.875000 0.500000
vt 0.875000 0.562500
vt 0.812597 0.562500
vt 0.375000 0.157169
vt 0.625000 0.157169
vt 0.749929 0.592831
vt 0.687465 0.592831
vt 0.687465 0.592831
vt 0.749929 0.592831
vt 0.875000 0.656250
vt 0.812597 0.656250
vt 0.687465 0.625000
vt 0.749929 0.625000
vt 0.749929 0.656250
vt 0.687465 0.656250
vt 0.187403 0.625000
vt 0.250071 0.625000
vt 0.250071 0.656250
vt 0.187403 0.656250
vt 0.875000 0.562500
vt 0.812597 0.562500
vt 0.187403 0.562500
vt 0.250071 0.562500
vt 0.250071 0.592831
vt 0.187403 0.592831
vt 0.687465 0.500000
vt 0.749929 0.500000
vt 0.749929 0.562500
vt 0.687465 0.562500
vt 0.187403 0.500000
vt 0.250071 0.500000
vt 0.250071 0.687500
vt 0.187403 0.687500
vt 0.625000 0.062500
vt 0.625000 0.093750
vt 0.687465 0.687500
vt 0.749929 0.750000
vt 0.687465 0.750000
vt 0.250071 0.750000
vt 0.187403 0.750000
vt 0.375000 0.812465
vt 0.625000 0.812465
vt 0.625000 0.874929
vt 0.375000 0.874929
vt 0.375000 0.312403
vt 0.625000 0.312403
vt 0.625000 0.375071
vt 0.375000 0.375071
vt 0.812597 0.656250
vt 0.875000 0.656250
vt 0.875000 0.687500
vt 0.875000 0.592831
vt 0.812597 0.592831
vt 0.687465 0.562500
vt 0.749929 0.562500
vt 0.687465 0.656250
vt 0.749929 0.656250
vt 0.687465 0.687500
vt 0.625000 0.157169
vt 0.625000 0.187500
vt 0.125000 0.687500
vt 0.125000 0.750000
vt 0.125000 0.592831
vt 0.125000 0.625000
vt 0.125000 0.656250
vt 0.125000 0.500000
vt 0.125000 0.562500
vn -0.9239 0.3826 0.0000
vn 0.0000 0.0000 -1.0000
vn 0.9863 0.1650 0.0000
vn 0.0000 0.0000 1.0000
vn 0.1650 -0.9863 0.0000
vn -0.1650 0.9863 0.0000
vn -0.9671 0.2543 0.0000
vn -0.9468 0.3098 -0.0868
vn -0.9470 0.3099 0.0843
vn -0.2973 0.9548 0.0000
vn -0.9863 -0.1650 0.0000
vn 0.7017 -0.7125 0.0000
usemtl None
s off
f 19/1/1 17/2/1 4/3/1 3/4/1
f 50/5/2 43/6/2 8/7/2 7/8/2
f 16/9/3 14/10/3 6/11/3 5/12/3
f 77/13/4 70/14/4 2/15/4 1/16/4
f 53/17/5 16/9/5 5/12/5 44/18/5
f 79/19/6 15/20/6 2/21/6 70/22/6
f 81/23/6 23/24/6 10/25/6 78/26/6
f 55/27/5 24/28/5 11/29/5 52/30/5
f 24/28/3 22/31/3 12/32/3 11/29/3
f 27/33/7 25/34/7 10/35/7 9/36/7
f 1/37/1 2/38/1 15/39/1 13/40/1
f 79/19/4 35/41/4 61/42/4 83/43/4
f 56/44/5 26/45/5 16/9/5 53/17/5
f 26/45/3 28/46/3 14/10/3 16/9/3
f 7/8/3 8/7/3 20/47/3 18/48/3
f 50/49/5 7/8/5 18/48/5 54/50/5
f 76/51/6 4/52/6 17/53/6 80/54/6
f 21/55/8 23/56/8 17/2/8 19/1/8
f 9/36/7 10/35/7 23/56/7 21/55/7
f 18/48/3 20/47/3 22/31/3 24/28/3
f 54/50/5 18/48/5 24/28/5 55/27/5
f 40/57/2 48/58/2 67/59/2 63/60/2
f 11/29/3 12/32/3 28/46/3 26/45/3
f 52/30/5 11/29/5 26/45/5 56/44/5
f 78/26/6 10/25/6 25/61/6 82/62/6
f 13/40/9 15/39/9 25/34/9 27/33/9
f 45/63/6 33/64/6 42/65/6 49/66/6
f 71/67/5 34/68/5 41/69/5 75/70/5
f 80/54/2 17/53/2 58/71/2 84/72/2
f 73/73/5 37/74/5 39/75/5 74/76/5
f 43/77/10 30/78/10 38/79/10 47/80/10
f 69/81/5 29/82/5 37/74/5 73/73/5
f 75/70/5 41/69/5 36/83/5 72/84/5
f 25/34/3 15/39/3 59/85/3 60/86/3
f 74/76/5 39/75/5 34/68/5 71/67/5
f 48/58/6 40/57/6 33/64/6 45/63/6
f 46/87/10 35/41/10 32/88/10 51/89/10
f 72/84/5 36/83/5 31/90/5 77/91/5
f 44/92/4 51/93/4 32/94/4 31/95/4
f 69/96/2 76/97/2 30/98/2 29/99/2
f 5/12/4 6/11/4 51/93/4 44/92/4
f 14/10/6 46/87/6 51/89/6 6/11/6
f 22/31/6 48/58/6 45/63/6 12/32/6
f 28/46/6 49/66/6 46/87/6 14/10/6
f 8/7/6 43/77/6 47/80/6 20/47/6
f 20/47/6 47/80/6 48/58/6 22/31/6
f 12/32/6 45/63/6 49/66/6 28/46/6
f 34/68/5 52/30/5 56/44/5 41/69/5
f 37/74/5 54/50/5 55/27/5 39/75/5
f 29/82/5 50/49/5 54/50/5 37/74/5
f 41/69/5 56/44/5 53/17/5 36/83/5
f 39/75/5 55/27/5 52/30/5 34/68/5
f 36/83/5 53/17/5 44/18/5 31/90/5
f 29/99/2 30/98/2 43/6/2 50/5/2
f 86/100/6 60/101/6 59/102/6 83/43/6
f 84/72/6 58/71/6 57/103/6 85/104/6
f 66/105/6 62/106/6 63/60/6 67/59/6
f 68/107/6 64/108/6 61/42/6 65/109/6
f 48/58/11 47/80/11 66/105/11 67/59/11
f 82/62/4 25/61/4 60/101/4 86/100/4
f 17/2/3 23/56/3 57/110/3 58/111/3
f 49/66/4 42/65/4 64/108/4 68/107/4
f 35/41/2 46/87/2 65/109/2 61/42/2
f 46/87/11 49/66/11 68/107/11 65/109/11
f 81/23/2 40/57/2 63/60/2 85/104/2
f 47/80/4 38/79/4 62/106/4 66/105/4
f 23/24/2 81/23/2 85/104/2 57/103/2
f 42/65/4 82/62/4 86/100/4 64/108/4
f 62/106/6 84/72/6 85/104/6 63/60/6
f 64/108/6 86/100/6 83/43/6 61/42/6
f 3/4/2 4/3/2 76/97/2 69/96/2
f 13/112/12 72/84/12 77/91/12 1/113/12
f 21/114/12 74/76/12 71/67/12 9/115/12
f 27/116/12 75/70/12 72/84/12 13/112/12
f 3/117/12 69/81/12 73/73/12 19/118/12
f 19/118/12 73/73/12 74/76/12 21/114/12
f 38/79/2 80/54/2 84/72/2 62/106/2
f 9/115/12 71/67/12 75/70/12 27/116/12
f 33/64/6 78/26/6 82/62/6 42/65/6
f 30/78/6 76/51/6 80/54/6 38/79/6
f 15/20/4 79/19/4 83/43/4 59/102/4
f 40/57/6 81/23/6 78/26/6 33/64/6
f 35/41/6 79/19/6 70/22/6 32/88/6
f 31/95/4 32/94/4 70/14/4 77/13/4
o Cube.002_Cube.003
v -1.083694 -0.231559 -0.520253
v -0.992598 -0.044724 -0.520253
v -1.083694 -0.231559 -2.020253
v -0.992598 -0.044724 -2.020253
v 0.999748 0.132910 -0.520253
v 0.989296 0.232362 -0.520253
v 0.999748 0.132910 -2.020253
v 0.989296 0.232362 -2.020253
v -1.083694 -0.231559 -1.270253
v -0.999748 0.023310 -1.270253
v 0.999748 0.132910 -1.270253
v 0.989296 0.232362 -1.270253
v -1.083694 -0.231559 -0.895253
v 0.989296 0.232362 -0.895253
v -0.992598 -0.044724 -0.895253
v 0.999748 0.132910 -0.895253
v -0.992598 -0.044724 -1.645253
v 0.999748 0.132910 -1.645253
v -1.083694 -0.231559 -1.645253
v 0.989296 0.232362 -1.645253
v -1.083694 -0.231559 -1.463268
v 0.989296 0.232362 -1.463268
v -0.999748 0.023310 -1.463268
v 0.999748 0.132910 -1.463268
v -0.999748 0.023310 -1.082753
v 0.999748 0.132910 -1.082753
v -1.083694 -0.231559 -1.082753
v 0.989296 0.232362 -1.082753
v 0.005790 0.028443 -2.020253
v 0.002488 0.059861 -2.020253
v 0.005790 0.028443 -0.520253
v 0.002488 0.059861 -0.520253
v -0.004663 0.127895 -1.270253
v 0.005790 0.028443 -1.270253
v 0.002488 0.059861 -0.895253
v 0.005790 0.028443 -0.895253
v 0.005790 0.028443 -1.645253
v 0.002488 0.059861 -1.645253
v 0.005790 0.028443 -1.463268
v -0.004663 0.127895 -1.463268
v 0.005790 0.028443 -1.082753
v -0.004663 0.127895 -1.082753
v 0.492317 0.180129 -2.020253
v 0.502769 0.080676 -0.520253
v 0.492317 0.180129 -1.270253
v 0.492317 0.180129 -0.895253
v 0.492317 0.180129 -1.645253
v 0.492317 0.180129 -1.463268
v 0.492317 0.180129 -1.082753
v 0.502769 0.080676 -2.020253
v 0.492317 0.180129 -0.520253
v 0.502769 0.080676 -1.270253
v 0.502769 0.080676 -0.895253
v 0.502769 0.080676 -1.645253
v 0.502769 0.080676 -1.463268
v 0.502769 0.080676 -1.082753
v -0.994102 -0.030418 -1.463268
v -0.994102 -0.030418 -1.645253
v -0.994102 -0.030418 -0.895253
v -0.994102 -0.030418 -1.082753
v 0.000984 0.074167 -0.895253
v 0.000984 0.074167 -1.645253
v 0.000984 0.074167 -1.463268
v 0.000984 0.074167 -1.082753
v 0.497964 0.126401 -0.895253
v 0.497964 0.126401 -1.645253
v 0.497964 0.126401 -1.463268
v 0.497964 0.126401 -1.082753
v -0.893767 -0.066102 -2.020253
v -0.897069 -0.034683 -0.520253
v -0.893767 -0.066102 -1.270253
v -0.893767 -0.066102 -0.895253
v -0.893767 -0.066102 -1.645253
v -0.893767 -0.066102 -1.463268
v -0.893767 -0.066102 -1.082753
v -0.897069 -0.034683 -2.020253
v -0.893767 -0.066102 -0.520253
v -0.904220 0.033351 -1.270253
v -0.897069 -0.034683 -0.895253
v -0.897069 -0.034683 -1.645253
v -0.904220 0.033351 -1.463268
v -0.904220 0.033351 -1.082753
v -0.898573 -0.020377 -0.895253
v -0.898573 -0.020377 -1.645253
v -0.898573 -0.020377 -1.463268
v -0.898573 -0.020377 -1.082753
vt 0.375000 0.187500
vt 0.625000 0.187500
vt 0.625000 0.250000
vt 0.375000 0.250000
vt 0.375000 0.437535
vt 0.625000 0.437535
vt 0.625000 0.500000
vt 0.375000 0.500000
vt 0.375000 0.687500
vt 0.625000 0.687500
vt 0.625000 0.750000
vt 0.375000 0.750000
vt 0.375000 0.937597
vt 0.625000 0.937597
vt 0.625000 1.000000
vt 0.375000 1.000000
vt 0.312535 0.687500
vt 0.312535 0.750000
vt 0.812597 0.687500
vt 0.875000 0.687500
vt 0.875000 0.750000
vt 0.812597 0.750000
vt 0.812597 0.592831
vt 0.875000 0.592831
vt 0.875000 0.625000
vt 0.812597 0.625000
vt 0.312535 0.592831
vt 0.375000 0.592831
vt 0.375000 0.625000
vt 0.312535 0.625000
vt 0.625000 0.592831
vt 0.625000 0.625000
vt 0.375000 0.093750
vt 0.625000 0.093750
vt 0.625000 0.125000
vt 0.375000 0.125000
vt 0.375000 0.000000
vt 0.625000 0.000000
vt 0.625000 0.062500
vt 0.375000 0.062500
vt 0.749929 0.687500
vt 0.749929 0.687500
vt 0.812597 0.687500
vt 0.312535 0.656250
vt 0.375000 0.656250
vt 0.625000 0.656250
vt 0.625000 0.562500
vt 0.375000 0.562500
vt 0.312535 0.500000
vt 0.312535 0.562500
vt 0.812597 0.500000
vt 0.875000 0.500000
vt 0.875000 0.562500
vt 0.812597 0.562500
vt 0.375000 0.157169
vt 0.625000 0.157169
vt 0.749929 0.592831
vt 0.687465 0.592831
vt 0.687465 0.592831
vt 0.749929 0.592831
vt 0.875000 0.656250
vt 0.812597 0.656250
vt 0.687465 0.625000
vt 0.749929 0.625000
vt 0.749929 0.656250
vt 0.687465 0.656250
vt 0.187403 0.625000
vt 0.250071 0.625000
vt 0.250071 0.656250
vt 0.187403 0.656250
vt 0.875000 0.562500
vt 0.812597 0.562500
vt 0.187403 0.562500
vt 0.250071 0.562500
vt 0.250071 0.592831
vt 0.187403 0.592831
vt 0.687465 0.500000
vt 0.749929 0.500000
vt 0.749929 0.562500
vt 0.687465 0.562500
vt 0.187403 0.500000
vt 0.250071 0.500000
vt 0.250071 0.687500
vt 0.187403 0.687500
vt 0.625000 0.062500
vt 0.625000 0.093750
vt 0.687465 0.687500
vt 0.749929 0.750000
vt 0.687465 0.750000
vt 0.250071 0.750000
vt 0.187403 0.750000
vt 0.375000 0.812465
vt 0.625000 0.812465
vt 0.625000 0.874929
vt 0.375000 0.874929
vt 0.375000 0.312403
vt 0.625000 0.312403
vt 0.625000 0.375071
vt 0.375000 0.375071
vt 0.812597 0.656250
vt 0.875000 0.656250
vt 0.875000 0.687500
vt 0.875000 0.592831
vt 0.812597 0.592831
vt 0.687465 0.562500
vt 0.749929 0.562500
vt 0.687465 0.656250
vt 0.749929 0.656250
vt 0.687465 0.687500
vt 0.625000 0.157169
vt 0.625000 0.187500
vt 0.125000 0.687500
vt 0.125000 0.750000
vt 0.125000 0.592831
vt 0.125000 0.625000
vt 0.125000 0.656250
vt 0.125000 0.500000
vt 0.125000 0.562500
vn -0.8989 0.4383 0.0000
vn 0.0000 0.0000 -1.0000
vn 0.9945 0.1045 0.0000
vn 0.0000 0.0000 1.0000
vn 0.1045 -0.9945 0.0000
vn -0.1045 0.9945 0.0000
vn -0.9498 0.3128 0.0000
vn -0.9262 0.3670 -0.0868
vn -0.9264 0.3671 0.0843
vn -0.2384 0.9712 0.0000
vn -0.9945 -0.1045 0.0000
vn 0.6569 -0.7540 0.0000
usemtl None
s off
f 105/119/13 103/120/13 90/121/13 89/122/13
f 136/123/14 129/124/14 94/125/14 93/126/14
f 102/127/15 100/128/15 92/129/15 91/130/15
f 163/131/16 156/132/16 88/133/16 87/134/16
f 139/135/17 102/127/17 91/130/17 130/136/17
f 165/137/18 101/138/18 88/139/18 156/140/18
f 167/141/18 109/142/18 96/143/18 164/144/18
f 141/145/17 110/146/17 97/147/17 138/148/17
f 110/146/15 108/149/15 98/150/15 97/147/15
f 113/151/19 111/152/19 96/153/19 95/154/19
f 87/155/13 88/156/13 101/157/13 99/158/13
f 165/137/16 121/159/16 147/160/16 169/161/16
f 142/162/17 112/163/17 102/127/17 139/135/17
f 112/163/15 114/164/15 100/128/15 102/127/15
f 93/126/15 94/125/15 106/165/15 104/166/15
f 136/167/17 93/126/17 104/166/17 140/168/17
f 162/169/18 90/170/18 103/171/18 166/172/18
f 107/173/20 109/174/20 103/120/20 105/119/20
f 95/154/19 96/153/19 109/174/19 107/173/19
f 104/166/15 106/165/15 108/149/15 110/146/15
f 140/168/17 104/166/17 110/146/17 141/145/17
f 126/175/14 134/176/14 153/177/14 149/178/14
f 97/147/15 98/150/15 114/164/15 112/163/15
f 138/148/17 97/147/17 112/163/17 142/162/17
f 164/144/18 96/143/18 111/179/18 168/180/18
f 99/158/21 101/157/21 111/152/21 113/151/21
f 131/181/18 119/182/18 128/183/18 135/184/18
f 157/185/17 120/186/17 127/187/17 161/188/17
f 166/172/14 103/171/14 144/189/14 170/190/14
f 159/191/17 123/192/17 125/193/17 160/194/17
f 129/195/22 116/196/22 124/197/22 133/198/22
f 155/199/17 115/200/17 123/192/17 159/191/17
f 161/188/17 127/187/17 122/201/17 158/202/17
f 111/152/15 101/157/15 145/203/15 146/204/15
f 160/194/17 125/193/17 120/186/17 157/185/17
f 134/176/18 126/175/18 119/182/18 131/181/18
f 132/205/22 121/159/22 118/206/22 137/207/22
f 158/202/17 122/201/17 117/208/17 163/209/17
f 130/210/16 137/211/16 118/212/16 117/213/16
f 155/214/14 162/215/14 116/216/14 115/217/14
f 91/130/16 92/129/16 137/211/16 130/210/16
f 100/128/18 132/205/18 137/207/18 92/129/18
f 108/149/18 134/176/18 131/181/18 98/150/18
f 114/164/18 135/184/18 132/205/18 100/128/18
f 94/125/18 129/195/18 133/198/18 106/165/18
f 106/165/18 133/198/18 134/176/18 108/149/18
f 98/150/18 131/181/18 135/184/18 114/164/18
f 120/186/17 138/148/17 142/162/17 127/187/17
f 123/192/17 140/168/17 141/145/17 125/193/17
f 115/200/17 136/167/17 140/168/17 123/192/17
f 127/187/17 142/162/17 139/135/17 122/201/17
f 125/193/17 141/145/17 138/148/17 120/186/17
f 122/201/17 139/135/17 130/136/17 117/208/17
f 115/217/14 116/216/14 129/124/14 136/123/14
f 172/218/18 146/219/18 145/220/18 169/161/18
f 170/190/18 144/189/18 143/221/18 171/222/18
f 152/223/18 148/224/18 149/178/18 153/177/18
f 154/225/18 150/226/18 147/160/18 151/227/18
f 134/176/23 133/198/23 152/223/23 153/177/23
f 168/180/16 111/179/16 146/219/16 172/218/16
f 103/120/15 109/174/15 143/228/15 144/229/15
f 135/184/16 128/183/16 150/226/16 154/225/16
f 121/159/14 132/205/14 151/227/14 147/160/14
f 132/205/23 135/184/23 154/225/23 151/227/23
f 167/141/14 126/175/14 149/178/14 171/222/14
f 133/198/16 124/197/16 148/224/16 152/223/16
f 109/142/14 167/141/14 171/222/14 143/221/14
f 128/183/16 168/180/16 172/218/16 150/226/16
f 148/224/18 170/190/18 171/222/18 149/178/18
f 150/226/18 172/218/18 169/161/18 147/160/18
f 89/122/14 90/121/14 162/215/14 155/214/14
f 99/230/24 158/202/24 163/209/24 87/231/24
f 107/232/24 160/194/24 157/185/24 95/233/24
f 113/234/24 161/188/24 158/202/24 99/230/24
f 89/235/24 155/199/24 159/191/24 105/236/24
f 105/236/24 159/191/24 160/194/24 107/232/24
f 124/197/14 166/172/14 170/190/14 148/224/14
f 95/233/24 157/185/24 161/188/24 113/234/24
f 119/182/18 164/144/18 168/180/18 128/183/18
f 116/196/18 162/169/18 166/172/18 124/197/18
f 101/138/16 165/137/16 169/161/16 145/220/16
f 126/175/18 167/141/18 164/144/18 119/182/18
f 121/159/18 165/137/18 156/140/18 118/206/18
f 117/213/16 118/212/16 156/132/16 163/131/16
