# This file uses centimeters as units for non-parametric coordinates.

mtllib eviction notice_unwrapped.mtl
g default
v -72.671143 11.766253 67.991043
v -72.671143 12.842095 67.991043
v 60.371441 11.766253 67.991043
v 60.371441 12.842095 67.991043
v 60.371441 11.766253 -26.458641
v 60.371441 12.842095 -26.458641
v -72.671143 11.766253 -26.458641
v -72.671143 12.842095 -26.458641
v -100.960770 24.611637 93.824242
v -100.960770 24.995731 93.824242
v 33.553986 24.611637 93.824242
v 33.553986 24.995731 93.824242
v 33.553986 32.167881 -92.314865
v 33.553986 32.551975 -92.314865
v -100.960770 32.167881 -92.314865
v -100.960770 32.551975 -92.314865
v 33.553986 14.720819 33.333836
v 33.553986 14.720819 -33.332829
v 33.553986 14.336725 33.333836
v 33.553986 14.336725 -33.332829
v -100.960770 14.336725 33.333836
v -100.960770 14.336725 -33.332829
v -100.960770 14.720819 33.333836
v -100.960770 14.720819 -33.332829
vt 0.920582 0.887618
vt 0.917438 0.887656
vt 0.914064 0.611608
vt 0.917208 0.611569
vt 0.929862 0.887504
vt 0.926717 0.887543
vt 0.923343 0.611494
vt 0.926487 0.611456
vt 0.889642 0.808245
vt 0.890765 0.808245
vt 0.920798 0.985054
vt 0.919675 0.985054
vt 0.889642 0.613384
vt 0.890765 0.613384
vt 0.941761 0.440984
vt 0.942884 0.440984
vt 0.872018 0.618728
vt 0.910030 0.443461
vt 0.911151 0.443512
vt 0.873140 0.618779
vt 0.864312 0.813440
vt 0.863191 0.813389
vt 0.908568 0.988024
vt 0.907447 0.987973
vt 0.487291 0.044067
vt 0.486194 0.383196
vt 0.008494 0.381652
vt 0.009591 0.042523
vt 0.496200 0.381708
vt 0.497785 0.045873
vt 0.991812 0.048011
vt 0.990227 0.383846
vt 0.425823 0.420313
vt 0.425823 0.604958
vt 0.015221 0.604958
vt 0.015221 0.420313
vt 0.425823 0.808456
vt 0.015221 0.808456
vt 0.425823 0.988497
vt 0.015221 0.988497
vt 0.432589 0.604699
vt 0.432822 0.420054
vt 0.843424 0.420572
vt 0.843191 0.605217
vt 0.842935 0.808715
vt 0.432333 0.808197
vt 0.842708 0.988756
vt 0.432106 0.988238
vt 0.951943 0.884669
vt 0.948799 0.884707
vt 0.944046 0.495863
vt 0.947190 0.495825
vt 0.934302 0.495982
vt 0.937446 0.495944
vt 0.942199 0.884788
vt 0.939055 0.884826
vt 0.967534 0.884478
vt 0.966411 0.884492
vt 0.961606 0.491345
vt 0.962728 0.491331
vt 0.953810 0.491440
vt 0.954933 0.491427
vt 0.959738 0.884574
vt 0.958616 0.884587
vn 0.000000 0.000000 1.000000
vn 0.000000 0.000000 1.000000
vn 0.000000 0.000000 1.000000
vn 0.000000 0.000000 1.000000
vn 1.000000 0.000000 0.000000
vn 1.000000 0.000000 0.000000
vn 1.000000 0.000000 0.000000
vn 1.000000 0.000000 0.000000
vn 0.000000 0.000000 -1.000000
vn 0.000000 0.000000 -1.000000
vn 0.000000 0.000000 -1.000000
vn 0.000000 0.000000 -1.000000
vn -1.000000 0.000000 0.000000
vn -1.000000 0.000000 0.000000
vn -1.000000 0.000000 0.000000
vn -1.000000 0.000000 0.000000
vn 0.000000 1.000000 0.000000
vn 0.000000 1.000000 0.000000
vn 0.000000 1.000000 0.000000
vn 0.000000 1.000000 0.000000
vn 0.000000 -1.000000 0.000000
vn 0.000000 -1.000000 0.000000
vn 0.000000 -1.000000 0.000000
vn 0.000000 -1.000000 0.000000
vn 0.000000 0.000000 1.000000
vn 0.000000 0.000000 1.000000
vn 0.000000 0.000000 1.000000
vn 0.000000 0.000000 1.000000
vn 1.000000 0.000000 0.000000
vn 1.000000 0.000000 0.000000
vn 1.000000 0.000000 0.000000
vn 1.000000 0.000000 0.000000
vn 0.000000 0.000000 -1.000000
vn 0.000000 0.000000 -1.000000
vn 0.000000 0.000000 -1.000000
vn 0.000000 0.000000 -1.000000
vn -1.000000 0.000000 0.000000
vn -1.000000 0.000000 0.000000
vn -1.000000 0.000000 0.000000
vn -1.000000 0.000000 0.000000
vn 0.000000 0.985879 -0.167462
vn 0.000000 0.996463 -0.084028
vn 0.000000 0.996463 -0.084028
vn 0.000000 0.985879 -0.167462
vn 0.000000 -0.996463 0.084028
vn 0.000000 -0.985879 0.167462
vn 0.000000 -0.985879 0.167462
vn 0.000000 -0.996463 0.084028
vn 1.000000 0.000000 0.000000
vn 1.000000 0.000000 0.000000
vn 1.000000 0.000000 0.000000
vn 1.000000 0.000000 0.000000
vn 0.000000 -0.996463 0.084028
vn 0.000000 -0.989246 -0.146263
vn 0.000000 -0.989246 -0.146263
vn 0.000000 -0.996463 0.084028
vn -1.000000 0.000000 0.000000
vn -1.000000 0.000000 0.000000
vn -1.000000 0.000000 0.000000
vn -1.000000 0.000000 0.000000
vn 0.000000 0.996463 -0.084028
vn 0.000000 0.989246 0.146263
vn 0.000000 0.989246 0.146263
vn 0.000000 0.996463 -0.084028
vn 1.000000 0.000000 0.000000
vn 1.000000 0.000000 0.000000
vn 1.000000 0.000000 0.000000
vn 1.000000 0.000000 0.000000
vn 0.000000 -0.989246 -0.146263
vn 0.000000 -0.957214 -0.289380
vn 0.000000 -0.957214 -0.289380
vn 0.000000 -0.989246 -0.146263
vn -1.000000 0.000000 0.000000
vn -1.000000 0.000000 0.000000
vn -1.000000 0.000000 0.000000
vn -1.000000 0.000000 0.000000
vn 0.000000 0.989246 0.146263
vn 0.000000 0.957214 0.289380
vn 0.000000 0.957214 0.289380
vn 0.000000 0.989246 0.146263
s off
g initialShadingGroup Mesh
f 3/49/1 4/50/2 2/51/3 1/52/4
f 5/1/5 6/2/6 4/3/7 3/4/8
f 7/53/9 8/54/10 6/55/11 5/56/12
f 1/5/13 2/6/14 8/7/15 7/8/16
f 4/25/17 6/26/18 8/27/19 2/28/20
f 5/29/21 3/30/22 1/31/23 7/32/24
f 11/57/25 12/58/26 10/59/27 9/60/28
f 19/9/29 17/10/30 12/11/31 11/12/32
f 15/61/33 16/62/34 14/63/35 13/64/36
f 21/17/37 9/18/38 10/19/39 23/20/40
f 12/33/41 17/34/42 23/35/43 10/36/44
f 19/41/45 11/42/46 9/43/47 21/44/48
f 19/9/49 20/13/50 18/14/51 17/10/52
f 21/44/53 22/45/54 20/46/55 19/41/56
f 23/20/57 24/21/58 22/22/59 21/17/60
f 17/34/61 18/37/62 24/38/63 23/35/64
f 20/13/65 13/15/66 14/16/67 18/14/68
f 22/45/69 15/47/70 13/48/71 20/46/72
f 24/21/73 16/23/74 15/24/75 22/22/76
f 18/37/77 14/39/78 16/40/79 24/38/80
