# Blender v2.80 (sub 75) OBJ File: 'Fruit_bowl .blend'
# www.blender.org
mtllib Fruit_bowl .mtl
o Cylinder
v -0.012905 -0.068251 -1.019068
v -0.012905 1.627215 -3.584054
v 0.182186 -0.068251 -0.999853
v 0.682590 1.627215 -3.515554
v 0.369779 -0.068251 -0.942947
v 1.351357 1.627215 -3.312686
v 0.542666 -0.068251 -0.850537
v 1.967696 1.627215 -2.983245
v 0.694202 -0.068251 -0.726175
v 2.507922 1.627215 -2.539893
v 0.818565 -0.068251 -0.574638
v 2.951274 1.627215 -1.999668
v 0.910975 -0.068251 -0.401751
v 3.280714 1.627215 -1.383329
v 0.967881 -0.068251 -0.214158
v 3.483582 1.627215 -0.714562
v 0.987095 -0.068251 -0.019068
v 3.552082 1.627215 -0.019067
v 0.967881 -0.068251 0.176022
v 3.483582 1.627215 0.676427
v 0.910975 -0.068251 0.363615
v 3.280714 1.627215 1.345194
v 0.818565 -0.068251 0.536502
v 2.951274 1.627215 1.961534
v 0.694202 -0.068251 0.688039
v 2.507922 1.627215 2.501760
v 0.542666 -0.068251 0.812402
v 1.967696 1.627215 2.945112
v 0.369779 -0.068251 0.904812
v 1.351356 1.627215 3.274552
v 0.182185 -0.068251 0.961717
v 0.682589 1.627215 3.477420
v -0.012905 -0.068251 0.980932
v -0.012906 1.627215 3.545920
v -0.207995 -0.068251 0.961717
v -0.708401 1.627215 3.477420
v -0.395589 -0.068251 0.904812
v -1.377168 1.627215 3.274551
v -0.568475 -0.068251 0.812401
v -1.993507 1.627215 2.945111
v -0.720012 -0.068251 0.688039
v -2.533733 1.627215 2.501758
v -0.844375 -0.068251 0.536502
v -2.977085 1.627215 1.961532
v -0.936785 -0.068251 0.363615
v -3.306525 1.627215 1.345192
v -0.993690 -0.068251 0.176022
v -3.509392 1.627215 0.676424
v -1.012905 -0.068251 -0.019069
v -3.577892 1.627215 -0.019071
v -0.993690 -0.068251 -0.214159
v -3.509391 1.627215 -0.714565
v -0.936784 -0.068251 -0.401752
v -3.306522 1.627215 -1.383332
v -0.844374 -0.068251 -0.574639
v -2.977081 1.627215 -1.999671
v -0.720011 -0.068251 -0.726175
v -2.533728 1.627215 -2.539897
v -0.568474 -0.068251 -0.850538
v -1.993502 1.627215 -2.983248
v -0.395587 -0.068251 -0.942948
v -1.377161 1.627215 -3.312688
v -0.207993 -0.068251 -0.999853
v -0.708394 1.627215 -3.515555
v -0.207993 -0.114350 -0.999853
v -0.395587 -0.114350 -0.942948
v -0.568474 -0.114350 -0.850538
v -0.720011 -0.114350 -0.726175
v -0.844374 -0.114350 -0.574639
v -0.936784 -0.114350 -0.401752
v -0.993690 -0.114350 -0.214159
v -1.012905 -0.114350 -0.019069
v -0.993690 -0.114350 0.176022
v -0.936785 -0.114350 0.363615
v -0.844375 -0.114350 0.536502
v -0.720012 -0.114350 0.688039
v -0.568475 -0.114350 0.812401
v -0.395589 -0.114350 0.904812
v -0.207995 -0.114350 0.961717
v -0.012905 -0.114350 0.980932
v 0.182185 -0.114350 0.961717
v 0.369779 -0.114350 0.904812
v 0.542666 -0.114350 0.812402
v 0.694202 -0.114350 0.688039
v 0.818565 -0.114350 0.536502
v 0.910975 -0.114350 0.363615
v 0.967881 -0.114350 0.176022
v 0.987095 -0.114350 -0.019068
v 0.967881 -0.114350 -0.214158
v 0.910975 -0.114350 -0.401751
v 0.818565 -0.114350 -0.574638
v 0.694202 -0.114350 -0.726175
v 0.542666 -0.114350 -0.850537
v 0.369779 -0.114350 -0.942947
v 0.182186 -0.114350 -0.999853
v -0.012905 -0.114350 -1.019068
vt 1.000000 0.500000
vt 1.000000 1.000000
vt 0.968750 1.000000
vt 0.968750 0.500000
vt 0.937500 1.000000
vt 0.937500 0.500000
vt 0.906250 1.000000
vt 0.906250 0.500000
vt 0.875000 1.000000
vt 0.875000 0.500000
vt 0.843750 1.000000
vt 0.843750 0.500000
vt 0.812500 1.000000
vt 0.812500 0.500000
vt 0.781250 1.000000
vt 0.781250 0.500000
vt 0.750000 1.000000
vt 0.750000 0.500000
vt 0.718750 1.000000
vt 0.718750 0.500000
vt 0.687500 1.000000
vt 0.687500 0.500000
vt 0.656250 1.000000
vt 0.656250 0.500000
vt 0.625000 1.000000
vt 0.625000 0.500000
vt 0.593750 1.000000
vt 0.593750 0.500000
vt 0.562500 1.000000
vt 0.562500 0.500000
vt 0.531250 1.000000
vt 0.531250 0.500000
vt 0.500000 1.000000
vt 0.500000 0.500000
vt 0.468750 1.000000
vt 0.468750 0.500000
vt 0.437500 1.000000
vt 0.437500 0.500000
vt 0.406250 1.000000
vt 0.406250 0.500000
vt 0.375000 1.000000
vt 0.375000 0.500000
vt 0.343750 1.000000
vt 0.343750 0.500000
vt 0.312500 1.000000
vt 0.312500 0.500000
vt 0.281250 1.000000
vt 0.281250 0.500000
vt 0.250000 1.000000
vt 0.250000 0.500000
vt 0.218750 1.000000
vt 0.218750 0.500000
vt 0.187500 1.000000
vt 0.187500 0.500000
vt 0.156250 1.000000
vt 0.156250 0.500000
vt 0.125000 1.000000
vt 0.125000 0.500000
vt 0.093750 1.000000
vt 0.093750 0.500000
vt 0.062500 1.000000
vt 0.062500 0.500000
vt 0.031250 1.000000
vt 0.031250 0.500000
vt 0.000000 1.000000
vt 0.000000 0.500000
vt 0.750000 0.500000
vt 0.781250 0.500000
vt 0.062500 0.500000
vt 0.093750 0.500000
vt 0.343750 0.500000
vt 0.375000 0.500000
vt 0.625000 0.500000
vt 0.656250 0.500000
vt 0.906250 0.500000
vt 0.937500 0.500000
vt 0.218750 0.500000
vt 0.250000 0.500000
vt 0.500000 0.500000
vt 0.531250 0.500000
vt 0.812500 0.500000
vt 0.125000 0.500000
vt 0.406250 0.500000
vt 0.687500 0.500000
vt 0.968750 0.500000
vt 0.281250 0.500000
vt 0.562500 0.500000
vt 0.843750 0.500000
vt 0.156250 0.500000
vt 0.437500 0.500000
vt 0.718750 0.500000
vt 0.000000 0.500000
vt 0.031250 0.500000
vt 1.000000 0.500000
vt 0.312500 0.500000
vt 0.593750 0.500000
vt 0.875000 0.500000
vt 0.187500 0.500000
vt 0.468750 0.500000
vt 0.750000 0.490000
vt 0.796822 0.485388
vt 0.841844 0.471731
vt 0.883337 0.449553
vt 0.919706 0.419706
vt 0.949553 0.383337
vt 0.971731 0.341844
vt 0.985388 0.296822
vt 0.990000 0.250000
vt 0.985388 0.203178
vt 0.971731 0.158156
vt 0.949553 0.116663
vt 0.919706 0.080294
vt 0.883337 0.050447
vt 0.841844 0.028269
vt 0.796822 0.014612
vt 0.750000 0.010000
vt 0.703178 0.014612
vt 0.658156 0.028269
vt 0.616663 0.050447
vt 0.580294 0.080294
vt 0.550447 0.116663
vt 0.528269 0.158156
vt 0.514611 0.203179
vt 0.510000 0.250000
vt 0.514612 0.296822
vt 0.528269 0.341844
vt 0.550447 0.383337
vt 0.580295 0.419706
vt 0.616663 0.449553
vt 0.658156 0.471731
vt 0.703179 0.485389
vn 0.0542 -0.8330 -0.5506
vn 0.1606 -0.8330 -0.5295
vn 0.2608 -0.8330 -0.4879
vn 0.3510 -0.8330 -0.4277
vn 0.4277 -0.8330 -0.3510
vn 0.4879 -0.8330 -0.2608
vn 0.5295 -0.8330 -0.1606
vn 0.5506 -0.8330 -0.0542
vn 0.5506 -0.8330 0.0542
vn 0.5295 -0.8330 0.1606
vn 0.4879 -0.8330 0.2608
vn 0.4277 -0.8330 0.3510
vn 0.3510 -0.8330 0.4277
vn 0.2608 -0.8330 0.4879
vn 0.1606 -0.8330 0.5295
vn 0.0542 -0.8330 0.5506
vn -0.0542 -0.8330 0.5506
vn -0.1606 -0.8330 0.5295
vn -0.2608 -0.8330 0.4879
vn -0.3510 -0.8330 0.4277
vn -0.4277 -0.8330 0.3510
vn -0.4879 -0.8330 0.2608
vn -0.5295 -0.8330 0.1606
vn -0.5506 -0.8330 0.0542
vn -0.5506 -0.8330 -0.0542
vn -0.5295 -0.8330 -0.1606
vn -0.4879 -0.8330 -0.2608
vn -0.4277 -0.8330 -0.3510
vn -0.3510 -0.8330 -0.4277
vn -0.2608 -0.8330 -0.4879
vn -0.1606 -0.8330 -0.5295
vn -0.0542 -0.8330 -0.5506
vn 0.9952 0.0000 -0.0980
vn -0.4714 0.0000 -0.8819
vn -0.7730 0.0000 0.6344
vn 0.7730 0.0000 0.6344
vn 0.4714 0.0000 -0.8819
vn -0.9952 0.0000 -0.0980
vn 0.0980 0.0000 0.9952
vn 0.9569 0.0000 -0.2903
vn -0.6344 0.0000 -0.7730
vn -0.6344 0.0000 0.7730
vn 0.8819 0.0000 0.4714
vn 0.2903 0.0000 -0.9569
vn -0.9952 0.0000 0.0980
vn 0.2903 0.0000 0.9569
vn 0.8819 0.0000 -0.4714
vn -0.7730 0.0000 -0.6344
vn -0.4714 0.0000 0.8819
vn 0.9569 0.0000 0.2903
vn -0.0980 0.0000 -0.9952
vn 0.0980 0.0000 -0.9952
vn -0.9569 0.0000 0.2903
vn 0.4714 0.0000 0.8819
vn 0.7730 0.0000 -0.6344
vn -0.8819 0.0000 -0.4714
vn -0.2903 0.0000 0.9569
vn 0.9952 0.0000 0.0980
vn -0.2903 0.0000 -0.9569
vn -0.8819 0.0000 0.4714
vn 0.6344 0.0000 0.7730
vn 0.6344 0.0000 -0.7730
vn -0.9569 0.0000 -0.2903
vn -0.0980 0.0000 0.9952
vn 0.0000 -1.0000 0.0000
usemtl None
s off
f 1/1/1 2/2/1 4/3/1 3/4/1
f 3/4/2 4/3/2 6/5/2 5/6/2
f 5/6/3 6/5/3 8/7/3 7/8/3
f 7/8/4 8/7/4 10/9/4 9/10/4
f 9/10/5 10/9/5 12/11/5 11/12/5
f 11/12/6 12/11/6 14/13/6 13/14/6
f 13/14/7 14/13/7 16/15/7 15/16/7
f 15/16/8 16/15/8 18/17/8 17/18/8
f 17/18/9 18/17/9 20/19/9 19/20/9
f 19/20/10 20/19/10 22/21/10 21/22/10
f 21/22/11 22/21/11 24/23/11 23/24/11
f 23/24/12 24/23/12 26/25/12 25/26/12
f 25/26/13 26/25/13 28/27/13 27/28/13
f 27/28/14 28/27/14 30/29/14 29/30/14
f 29/30/15 30/29/15 32/31/15 31/32/15
f 31/32/16 32/31/16 34/33/16 33/34/16
f 33/34/17 34/33/17 36/35/17 35/36/17
f 35/36/18 36/35/18 38/37/18 37/38/18
f 37/38/19 38/37/19 40/39/19 39/40/19
f 39/40/20 40/39/20 42/41/20 41/42/20
f 41/42/21 42/41/21 44/43/21 43/44/21
f 43/44/22 44/43/22 46/45/22 45/46/22
f 45/46/23 46/45/23 48/47/23 47/48/23
f 47/48/24 48/47/24 50/49/24 49/50/24
f 49/50/25 50/49/25 52/51/25 51/52/25
f 51/52/26 52/51/26 54/53/26 53/54/26
f 53/54/27 54/53/27 56/55/27 55/56/27
f 55/56/28 56/55/28 58/57/28 57/58/28
f 57/58/29 58/57/29 60/59/29 59/60/29
f 59/60/30 60/59/30 62/61/30 61/62/30
f 61/62/31 62/61/31 64/63/31 63/64/31
f 63/64/32 64/63/32 2/65/32 1/66/32
f 15/16/33 17/18/33 88/67/33 89/68/33
f 59/60/34 61/62/34 66/69/34 67/70/34
f 41/42/35 43/44/35 75/71/35 76/72/35
f 23/24/36 25/26/36 84/73/36 85/74/36
f 5/6/37 7/8/37 93/75/37 94/76/37
f 49/50/38 51/52/38 71/77/38 72/78/38
f 31/32/39 33/34/39 80/79/39 81/80/39
f 13/14/40 15/16/40 89/68/40 90/81/40
f 57/58/41 59/60/41 67/70/41 68/82/41
f 39/40/42 41/42/42 76/72/42 77/83/42
f 21/22/43 23/24/43 85/74/43 86/84/43
f 3/4/44 5/6/44 94/76/44 95/85/44
f 47/48/45 49/50/45 72/78/45 73/86/45
f 29/30/46 31/32/46 81/80/46 82/87/46
f 11/12/47 13/14/47 90/81/47 91/88/47
f 55/56/48 57/58/48 68/82/48 69/89/48
f 37/38/49 39/40/49 77/83/49 78/90/49
f 19/20/50 21/22/50 86/84/50 87/91/50
f 63/64/51 1/66/51 96/92/51 65/93/51
f 1/1/52 3/4/52 95/85/52 96/94/52
f 45/46/53 47/48/53 73/86/53 74/95/53
f 27/28/54 29/30/54 82/87/54 83/96/54
f 9/10/55 11/12/55 91/88/55 92/97/55
f 53/54/56 55/56/56 69/89/56 70/98/56
f 35/36/57 37/38/57 78/90/57 79/99/57
f 17/18/58 19/20/58 87/91/58 88/67/58
f 61/62/59 63/64/59 65/93/59 66/69/59
f 43/44/60 45/46/60 74/95/60 75/71/60
f 25/26/61 27/28/61 83/96/61 84/73/61
f 7/8/62 9/10/62 92/97/62 93/75/62
f 51/52/63 53/54/63 70/98/63 71/77/63
f 33/34/64 35/36/64 79/99/64 80/79/64
f 96/100/65 95/101/65 94/102/65 93/103/65 92/104/65 91/105/65 90/106/65 89/107/65 88/108/65 87/109/65 86/110/65 85/111/65 84/112/65 83/113/65 82/114/65 81/115/65 80/116/65 79/117/65 78/118/65 77/119/65 76/120/65 75/121/65 74/122/65 73/123/65 72/124/65 71/125/65 70/126/65 69/127/65 68/128/65 67/129/65 66/130/65 65/131/65
