# This file uses centimeters as units for non-parametric coordinates.

mtllib MMdoorsign.mtl
g default
v -0.079859 1.496135 1.865445
v -0.079859 1.336544 1.684302
v -0.289908 1.126494 1.896286
v -0.289908 1.284357 2.075495
v -0.289908 1.284357 -4.420606
v -0.289908 1.126494 -4.241397
v -0.079859 1.336544 -4.029413
v -0.079859 1.496135 -4.210556
v -0.289908 3.799414 2.075495
v -0.289908 3.957277 1.896286
v -0.079859 3.747228 1.684302
v -0.079859 3.587636 1.865445
v -0.289908 3.957277 -4.241397
v -0.289908 3.799414 -4.420606
v -0.079859 3.587636 -4.210556
v -0.079859 3.747228 -4.029413
v -0.388374 1.248061 2.143713
v -0.388374 1.088560 1.962645
v -0.388374 3.995211 1.962645
v -0.388374 3.835711 2.143713
v -0.388374 3.835711 -4.488824
v -0.388374 3.995211 -4.307756
v -0.388374 1.088560 -4.307756
v -0.388374 1.248061 -4.488824
v -0.143600 1.528574 -4.133249
v -0.143600 1.377159 -3.932520
v -0.143600 1.528574 1.788138
v -0.143600 1.377159 1.587410
v -0.143600 3.706613 -3.932520
v -0.143600 3.555197 -4.133249
v -0.143600 3.555197 1.788138
v -0.143600 3.706613 1.587410
vt 0.463412 0.943443
vt 0.440724 0.917687
vt 0.440724 0.025756
vt 0.463412 0.000000
vt 0.831492 0.000000
vt 0.854180 0.025756
vt 0.854180 0.917687
vt 0.831492 0.943443
vt 0.066342 0.946389
vt 0.043512 0.916125
vt 0.043512 0.083875
vt 0.066342 0.053611
vt 0.371899 0.053611
vt 0.394729 0.083875
vt 0.394729 0.916125
vt 0.371899 0.946389
vt 0.061451 0.958045
vt 0.037389 0.930734
vt 0.037389 0.069266
vt 0.061451 0.041955
vt 0.376790 0.041955
vt 0.400852 0.069266
vt 0.400852 0.930734
vt 0.376790 0.958045
vt 0.029521 0.989715
vt 0.005719 0.962695
vt 0.005719 0.037305
vt 0.029521 0.010285
vt 0.408721 0.010285
vt 0.432522 0.037305
vt 0.432522 0.962695
vt 0.408721 0.989715
vt 0.024048 1.000000
vt 0.000000 0.972700
vt 0.000000 0.027300
vt 0.024048 0.000000
vt 0.414193 0.000000
vt 0.438241 0.027300
vt 0.438241 0.972700
vt 0.414193 1.000000
vt 0.857409 0.000000
vt 0.871908 0.009772
vt 0.871908 0.913557
vt 0.857409 0.923328
vt 0.873435 0.000000
vt 0.887934 0.009772
vt 0.887934 0.913557
vt 0.873435 0.923328
vn -1.000000 -0.000000 0.000000
vn -1.000000 -0.000000 0.000000
vn -1.000000 -0.000000 0.000000
vn -1.000000 -0.000000 0.000000
vn -1.000000 -0.000000 0.000000
vn -1.000000 -0.000000 0.000000
vn -1.000000 -0.000000 0.000000
vn -1.000000 -0.000000 0.000000
vn 1.000000 -0.000000 0.000000
vn 1.000000 -0.000000 0.000000
vn 1.000000 -0.000000 0.000000
vn 1.000000 -0.000000 0.000000
vn 1.000000 -0.000000 0.000000
vn 1.000000 -0.000000 0.000000
vn 1.000000 -0.000000 0.000000
vn 1.000000 -0.000000 0.000000
vn 0.794255 0.471110 -0.383686
vn 0.794255 0.471110 -0.383686
vn 0.794255 0.471110 -0.383686
vn 0.794255 0.471110 -0.383686
vn 0.713437 -0.700604 0.012715
vn 0.817131 -0.432545 0.381053
vn 0.761512 -0.486351 0.428442
vn 0.578625 -0.815241 0.023976
vn 0.592002 -0.604761 0.532727
vn 0.592002 -0.604761 0.532727
vn 0.761512 -0.486351 -0.428442
vn 0.578625 -0.815241 -0.023976
vn 0.592001 -0.604761 -0.532727
vn 0.592001 -0.604761 -0.532727
vn 0.817131 -0.432545 -0.381054
vn 0.713437 -0.700604 -0.012715
vn 0.794254 0.471110 0.383686
vn 0.794254 0.471110 0.383686
vn 0.794255 0.471110 0.383686
vn 0.794254 0.471110 0.383686
vn 0.761512 0.486350 0.428442
vn 0.578626 0.815241 0.023976
vn 0.592004 0.604760 0.532726
vn 0.592004 0.604760 0.532726
vn 0.817131 0.432544 0.381054
vn 0.713437 0.700604 0.012715
vn 0.794255 -0.471110 -0.383686
vn 0.794255 -0.471110 -0.383686
vn 0.794255 -0.471110 -0.383686
vn 0.794255 -0.471110 -0.383686
vn 0.578626 0.815241 -0.023976
vn 0.761512 0.486350 -0.428442
vn 0.592003 0.604760 -0.532726
vn 0.592003 0.604760 -0.532726
vn 0.713437 0.700604 -0.012715
vn 0.817131 0.432544 -0.381054
vn 0.794254 -0.471110 0.383686
vn 0.794254 -0.471110 0.383686
vn 0.794254 -0.471110 0.383686
vn 0.794254 -0.471110 0.383686
vn 0.645449 0.000000 0.763803
vn 0.707107 0.000000 0.707107
vn 0.707107 0.000000 0.707107
vn 0.645449 0.000000 0.763803
vn 0.645449 0.000000 -0.763804
vn 0.707106 0.000000 -0.707108
vn 0.707106 0.000000 -0.707108
vn 0.645449 0.000000 -0.763804
vn 0.569490 0.000000 0.821998
vn 0.569490 0.000000 0.821998
vn 0.359493 0.933148 0.000000
vn 0.359493 0.933148 0.000000
vn 0.569490 0.000000 -0.821998
vn 0.569490 0.000000 -0.821998
vn 0.359492 -0.933148 0.000000
vn 0.359492 -0.933148 0.000000
vn 0.537363 0.843351 0.000000
vn 0.537363 0.843351 0.000000
vn 0.537363 0.843351 0.000000
vn 0.537363 0.843351 0.000000
vn 0.771553 0.000000 0.636166
vn 0.771552 0.000000 0.636166
vn 0.771553 0.000000 0.636166
vn 0.771552 0.000000 0.636166
vn 0.537365 -0.843350 0.000000
vn 0.537365 -0.843350 0.000000
vn 0.537365 -0.843350 0.000000
vn 0.537365 -0.843350 0.000000
vn 0.771552 0.000000 -0.636167
vn 0.771552 0.000000 -0.636167
vn 0.771552 0.000000 -0.636167
vn 0.771552 0.000000 -0.636167
s off
g pCube1
usemtl initialShadingGroup
f 24/1/1 23/2/2 18/3/3 17/4/4 20/5/5 19/6/6 22/7/7 21/8/8
f 27/9/9 28/10/10 26/11/11 25/12/12 30/13/13 29/14/14 32/15/15 31/16/16
f 1/17/17 2/18/18 28/10/19 27/9/20
s 1
f 2/18/21 1/17/22 4/25/23 3/26/24
f 3/26/24 4/25/23 17/33/25 18/34/26
f 5/28/27 6/27/28 23/35/29 24/36/30
f 6/27/28 5/28/27 8/20/31 7/19/32
s off
f 7/19/33 8/20/34 25/12/35 26/11/36
s 3
f 9/32/37 10/31/38 19/39/39 20/40/40
f 10/31/38 9/32/37 12/24/41 11/23/42
s off
f 11/23/43 12/24/44 31/16/45 32/15/46
s 3
f 13/30/47 14/29/48 21/37/49 22/38/50
f 14/29/48 13/30/47 16/22/51 15/21/52
s off
f 15/21/53 16/22/54 29/14/55 30/13/56
s 1
f 2/18/21 3/26/24 6/27/28 7/19/32
s 5
f 4/25/57 1/17/58 12/24/59 9/32/60
s 3
f 10/31/38 11/23/42 16/22/51 13/30/47
s 6
f 14/29/61 15/21/62 8/20/63 5/28/64
s 5
f 17/33/65 4/25/57 9/32/60 20/40/66
s 3
f 19/41/67 10/42/38 13/43/47 22/44/68
s 6
f 21/37/69 14/29/61 5/28/64 24/36/70
s 1
f 23/45/71 6/46/28 3/47/24 18/48/72
s off
f 2/18/73 7/19/74 26/11/75 28/10/76
f 8/20/77 15/21/78 30/13/79 25/12/80
f 16/22/81 11/23/82 32/15/83 29/14/84
f 12/24/85 1/17/86 27/9/87 31/16/88
