# Blender v2.80 (sub 75) OBJ File: 'ShotGun_Barrel.blend'
# www.blender.org
mtllib ShotGun_Barrel.mtl
o Cube_Cube.001
v 2.418422 0.285989 -0.306421
v 2.418422 -0.032279 -0.624689
v 2.418422 -0.032279 0.011847
v 2.418422 -0.349699 -0.306421
v -2.418808 0.285989 -0.306421
v -2.418808 -0.032279 -0.624689
v -2.418808 -0.032279 0.011847
v -2.418808 -0.349699 -0.306421
v 2.418422 0.179876 -0.518530
v -2.418808 -0.244388 -0.094266
v 2.418422 -0.244388 -0.094266
v -2.418808 0.179876 -0.518530
v -2.418808 -0.244411 -0.518553
v 2.418422 0.179853 -0.094289
v -2.418808 0.179853 -0.094289
v 2.418422 -0.244411 -0.518553
v 2.418422 -0.032256 -0.306398
v -2.418808 -0.032256 -0.306398
v -2.418808 -0.138334 0.011789
v 2.418422 0.285930 -0.412475
v 2.418422 -0.138334 0.011789
v -2.418808 0.285930 -0.412475
v 2.418422 0.095768 -0.178374
v -2.418808 0.095768 -0.178374
v -2.418808 0.285919 -0.200355
v 2.418422 -0.138345 -0.624619
v -2.418808 0.095768 -0.434440
v -2.418808 -0.138345 -0.624619
v 2.418422 0.285919 -0.200355
v 2.418422 0.095768 -0.434440
v 2.418422 0.148801 -0.306407
v -2.418808 0.148801 -0.306407
v 2.418422 0.073798 -0.624607
v 2.418422 -0.350466 -0.200343
v -2.418808 0.073798 -0.624607
v -2.418808 -0.350466 -0.200343
v -2.418808 -0.160298 -0.434440
v 2.418422 -0.160298 -0.434440
v 2.418422 -0.032265 -0.487473
v -2.418808 -0.032265 -0.487473
v -2.418808 -0.350477 -0.412487
v 2.418422 0.073787 0.011777
v 2.418422 -0.160298 -0.178374
v -2.418808 0.073787 0.011777
v 2.418422 -0.350477 -0.412487
v -2.418808 -0.160298 -0.178374
v -2.418808 -0.032265 -0.125341
v 2.418422 -0.032265 -0.125341
v -2.418808 -0.213331 -0.306407
v 2.418422 -0.213331 -0.306407
v 2.418422 0.285989 0.330160
v 2.418422 -0.032279 0.011892
v 2.418422 -0.032279 0.648428
v 2.418422 -0.349699 0.330160
v -2.418808 0.285989 0.330160
v -2.418808 -0.032279 0.011892
v -2.418808 -0.032279 0.648428
v -2.418808 -0.349699 0.330160
v 2.418422 0.179876 0.118051
v -2.418808 -0.244388 0.542315
v 2.418422 -0.244388 0.542315
v -2.418808 0.179876 0.118051
v -2.418808 -0.244411 0.118028
v 2.418422 0.179853 0.542292
v -2.418808 0.179853 0.542292
v 2.418422 -0.244411 0.118028
v 2.418422 -0.032256 0.330183
v -2.418808 -0.032256 0.330183
v -2.418808 -0.138334 0.648369
v 2.418422 0.285930 0.224105
v 2.418422 -0.138334 0.648369
v -2.418808 0.285930 0.224105
v 2.418422 0.095768 0.458207
v -2.418808 0.095768 0.458207
v -2.418808 0.285919 0.436226
v 2.418422 -0.138345 0.011962
v -2.418808 0.095768 0.202141
v -2.418808 -0.138345 0.011962
v 2.418422 0.285919 0.436226
v 2.418422 0.095768 0.202141
v 2.418422 0.148801 0.330174
v -2.418808 0.148801 0.330174
v 2.418422 0.073798 0.011973
v 2.418422 -0.350466 0.436237
v -2.418808 0.073798 0.011973
v -2.418808 -0.350466 0.436237
v -2.418808 -0.160298 0.202141
v 2.418422 -0.160298 0.202141
v 2.418422 -0.032265 0.149108
v -2.418808 -0.032265 0.149108
v -2.418808 -0.350477 0.224094
v 2.418422 0.073787 0.648358
v 2.418422 -0.160298 0.458207
v -2.418808 0.073787 0.648358
v 2.418422 -0.350477 0.224094
v -2.418808 -0.160298 0.458207
v -2.418808 -0.032265 0.511240
v 2.418422 -0.032265 0.511240
v -2.418808 -0.213331 0.330174
v 2.418422 -0.213331 0.330174
v -2.417112 0.061324 0.131940
v -2.417112 0.179565 0.131940
v -2.417112 0.061324 -0.114048
v -2.417112 0.179565 -0.114048
v 2.418364 0.061324 0.131940
v 2.418364 0.179565 0.131940
v 2.418364 0.061324 -0.114048
v 2.418364 0.179565 -0.114048
v -2.808073 -0.034680 0.015564
v -3.316448 -0.034680 0.015564
v -2.808073 -0.034680 -0.301781
v -3.316448 -0.034680 -0.301781
v -3.316448 -0.034680 0.332909
v -2.808073 -0.034680 0.332909
v -2.808073 -0.219817 0.015564
v -3.316448 -0.219817 0.015564
v -3.316448 -0.195013 -0.279583
v -2.808073 -0.195013 -0.279583
v -2.808073 -0.195013 0.310712
v -3.316448 -0.195013 0.310712
v -2.808073 0.150456 0.015564
v -3.316448 0.150456 0.015564
v -2.808073 0.125653 -0.279583
v -3.316448 0.125653 -0.279583
v -3.316448 0.125653 0.310712
v -2.808073 0.125653 0.310712
vt 0.375000 0.187500
vt 0.625000 0.187500
vt 0.625000 0.250000
vt 0.375000 0.250000
vt 0.562507 0.250000
vt 0.625000 0.250000
vt 0.625000 0.500000
vt 0.562507 0.500000
vt 0.562507 0.687500
vt 0.625000 0.687500
vt 0.625000 0.750000
vt 0.562507 0.750000
vt 0.375000 0.937500
vt 0.625000 0.937500
vt 0.625000 1.000000
vt 0.375000 1.000000
vt 0.312507 0.687500
vt 0.375000 0.687500
vt 0.375000 0.750000
vt 0.312507 0.750000
vt 0.812507 0.500000
vt 0.875000 0.500000
vt 0.875000 0.750000
vt 0.812507 0.750000
vt 0.687507 0.500000
vt 0.750014 0.500000
vt 0.750014 0.750000
vt 0.687507 0.750000
vt 0.187507 0.687500
vt 0.250014 0.687500
vt 0.250014 0.750000
vt 0.187507 0.750000
vt 0.437507 0.687500
vt 0.500014 0.687500
vt 0.500014 0.750000
vt 0.437507 0.750000
vt 0.437507 0.250000
vt 0.500014 0.250000
vt 0.500014 0.500000
vt 0.437507 0.500000
vt 0.187507 0.687500
vt 0.250014 0.687500
vt 0.250014 0.750000
vt 0.187507 0.750000
vt 0.687507 0.500000
vt 0.750014 0.500000
vt 0.750014 0.750000
vt 0.687507 0.750000
vt 0.312507 0.562500
vt 0.375000 0.562500
vt 0.375000 0.625000
vt 0.312507 0.625000
vt 0.375000 0.812500
vt 0.625000 0.812500
vt 0.625000 0.875000
vt 0.375000 0.875000
vt 0.562507 0.562500
vt 0.625000 0.562500
vt 0.625000 0.625000
vt 0.562507 0.625000
vt 0.375000 0.062500
vt 0.625000 0.062500
vt 0.625000 0.125000
vt 0.375000 0.125000
vt 0.812507 0.500000
vt 0.875000 0.500000
vt 0.875000 0.750000
vt 0.812507 0.750000
vt 0.312507 0.687500
vt 0.375000 0.687500
vt 0.375000 0.750000
vt 0.312507 0.750000
vt 0.375000 0.937500
vt 0.625000 0.937500
vt 0.625000 1.000000
vt 0.375000 1.000000
vt 0.250014 0.500000
vt 0.312507 0.500000
vt 0.250014 0.562500
vt 0.375000 0.000000
vt 0.625000 0.000000
vt 0.375000 0.750000
vt 0.625000 0.750000
vt 0.375000 0.500000
vt 0.187507 0.500000
vt 0.187507 0.562500
vt 0.562507 0.687500
vt 0.625000 0.687500
vt 0.625000 0.750000
vt 0.562507 0.750000
vt 0.375000 0.625000
vt 0.437507 0.625000
vt 0.375000 0.687500
vt 0.125000 0.500000
vt 0.125000 0.562500
vt 0.187507 0.625000
vt 0.125000 0.625000
vt 0.375000 0.562500
vt 0.437507 0.562500
vt 0.375000 0.250000
vt 0.375000 0.500000
vt 0.125000 0.687500
vt 0.125000 0.750000
vt 0.625000 0.500000
vt 0.562507 0.250000
vt 0.625000 0.250000
vt 0.625000 0.500000
vt 0.562507 0.500000
vt 0.500014 0.562500
vt 0.375000 0.187500
vt 0.625000 0.187500
vt 0.625000 0.250000
vt 0.375000 0.250000
vt 0.000000 0.000000
vt 0.000000 0.000000
vt 0.000000 0.000000
vt 0.000000 0.000000
vt 0.000000 0.000000
vt 0.000000 0.000000
vt 0.000000 0.000000
vt 0.000000 0.000000
vt 0.000000 0.000000
vt 0.000000 0.000000
vt 0.000000 0.000000
vt 0.000000 0.000000
vt 0.000000 0.000000
vt 0.000000 0.000000
vt 0.000000 0.000000
vt 0.000000 0.000000
vt 0.437507 0.687500
vt 0.500014 0.687500
vt 0.500014 0.750000
vt 0.437507 0.750000
vt 0.437507 0.250000
vt 0.500014 0.250000
vt 0.500014 0.500000
vt 0.437507 0.500000
vt 0.312507 0.562500
vt 0.375000 0.562500
vt 0.375000 0.625000
vt 0.312507 0.625000
vt 0.375000 0.812500
vt 0.625000 0.812500
vt 0.625000 0.875000
vt 0.375000 0.875000
vt 0.562507 0.562500
vt 0.625000 0.562500
vt 0.625000 0.625000
vt 0.562507 0.625000
vt 0.375000 0.062500
vt 0.625000 0.062500
vt 0.625000 0.125000
vt 0.375000 0.125000
vt 0.250014 0.500000
vt 0.312507 0.500000
vt 0.250014 0.562500
vt 0.375000 0.000000
vt 0.625000 0.000000
vt 0.375000 0.750000
vt 0.625000 0.750000
vt 0.375000 0.500000
vt 0.187507 0.500000
vt 0.187507 0.562500
vt 0.375000 0.625000
vt 0.437507 0.625000
vt 0.375000 0.687500
vt 0.125000 0.500000
vt 0.125000 0.562500
vt 0.187507 0.625000
vt 0.125000 0.625000
vt 0.375000 0.562500
vt 0.437507 0.562500
vt 0.375000 0.250000
vt 0.375000 0.500000
vt 0.125000 0.687500
vt 0.125000 0.750000
vt 0.625000 0.500000
vt 0.500014 0.562500
vt 0.000000 0.000000
vt 0.000000 0.000000
vt 0.000000 0.000000
vt 0.000000 0.000000
vt 0.000000 0.000000
vt 0.000000 0.000000
vt 0.000000 0.000000
vt 0.000000 0.000000
vt 0.000000 0.000000
vt 0.000000 0.000000
vt 0.000000 0.000000
vt 0.000000 0.000000
vt 0.000000 0.000000
vt 0.000000 0.000000
vt 0.000000 0.000000
vt 0.000000 0.000000
vt 0.375000 0.000000
vt 0.625000 0.000000
vt 0.625000 0.250000
vt 0.375000 0.250000
vt 0.625000 0.500000
vt 0.375000 0.500000
vt 0.625000 0.750000
vt 0.375000 0.750000
vt 0.625000 1.000000
vt 0.375000 1.000000
vt 0.125000 0.500000
vt 0.125000 0.750000
vt 0.875000 0.500000
vt 0.875000 0.750000
vn 0.0000 0.0007 1.0000
vn 0.0000 -0.0006 1.0000
vn -1.0000 0.0000 0.0000
vn 0.0000 -1.0000 0.0073
vn 1.0000 0.0000 0.0000
vn 0.0000 1.0000 -0.0006
vn 0.0000 0.7071 -0.7071
vn 0.0000 -0.7071 0.7071
vn 0.0000 -0.7071 -0.7071
vn 0.0000 0.7071 0.7071
vn 0.0000 1.0000 0.0007
vn 0.0000 -0.0007 -1.0000
vn 0.0000 -1.0000 -0.0072
vn 0.0000 0.0008 -1.0000
vn 0.0000 0.3827 -0.9239
vn 0.0000 0.9239 -0.3827
vn 0.0000 0.9239 0.3827
vn 0.0000 0.3827 0.9239
vn 0.0000 -0.3827 0.9239
vn 0.0000 -0.9239 0.3827
vn 0.0000 -0.9239 -0.3827
vn -0.0000 -0.3827 -0.9239
vn 0.0000 -0.0000 -1.0000
vn 0.0000 0.0000 1.0000
vn 0.0000 -1.0000 0.0000
vn 0.0000 1.0000 -0.0000
usemtl Material.001
s off
f 42/1/1 44/2/1 7/3/1 3/4/1
f 21/5/2 3/6/2 7/7/2 19/8/2
f 32/9/3 25/10/3 5/11/3 22/12/3
f 41/13/4 45/14/4 4/15/4 8/16/4
f 48/17/5 42/18/5 3/19/5 21/20/5
f 22/21/6 5/22/6 1/23/6 20/24/6
f 35/25/7 12/26/7 9/27/7 33/28/7
f 50/29/5 43/30/5 11/31/5 34/32/5
f 40/33/3 27/34/3 12/35/3 35/36/3
f 34/37/8 11/38/8 10/39/8 36/40/8
f 100/41/5 93/42/5 61/43/5 84/44/5
f 85/45/7 62/46/7 59/47/7 83/48/7
f 31/49/5 29/50/5 14/51/5 23/52/5
f 28/53/9 26/54/9 16/55/9 13/56/9
f 47/57/3 44/58/3 15/59/3 24/60/3
f 29/61/10 25/62/10 15/63/10 14/64/10
f 72/65/6 55/66/6 51/67/6 70/68/6
f 98/69/5 92/70/5 53/71/5 71/72/5
f 12/26/7 22/21/7 20/24/7 9/27/7
f 43/30/5 48/17/5 21/20/5 11/31/5
f 27/34/3 32/9/3 22/12/3 12/35/3
f 11/38/8 21/5/8 19/8/8 10/39/8
f 91/73/4 95/74/4 54/75/4 58/76/4
f 9/77/5 20/78/5 31/49/5 30/79/5
f 1/80/11 5/81/11 25/62/11 29/61/11
f 6/82/12 2/83/12 26/54/12 28/53/12
f 20/78/5 1/84/5 29/50/5 31/49/5
f 33/85/5 9/77/5 30/79/5 39/86/5
f 82/87/3 75/88/3 55/89/3 72/90/3
f 24/60/3 15/59/3 25/10/3 32/9/3
f 13/91/3 37/92/3 40/33/3 28/93/3
f 2/94/5 33/85/5 39/86/5 26/95/5
f 26/95/5 39/86/5 38/96/5 16/97/5
f 41/98/3 49/99/3 37/92/3 13/91/3
f 4/100/13 34/37/13 36/40/13 8/101/13
f 28/93/3 40/33/3 35/36/3 6/82/3
f 45/102/5 50/29/5 34/32/5 4/103/5
f 6/104/14 35/25/14 33/28/14 2/83/14
f 16/97/5 38/96/5 50/29/5 45/102/5
f 8/101/3 36/40/3 49/99/3 41/98/3
f 71/105/2 53/106/2 57/107/2 69/108/2
f 10/39/3 19/8/3 47/57/3 46/109/3
f 19/8/3 7/7/3 44/58/3 47/57/3
f 36/40/3 10/39/3 46/109/3 49/99/3
f 92/110/1 94/111/1 57/112/1 53/113/1
f 23/52/5 14/51/5 42/18/5 48/17/5
f 13/56/9 16/55/9 45/14/9 41/13/9
f 14/64/10 15/63/10 44/2/10 42/1/10
f 47/114/15 48/115/15 43/116/15 46/117/15
f 46/117/16 43/116/16 50/118/16 49/119/16
f 49/119/17 50/118/17 38/120/17 37/121/17
f 37/121/18 38/120/18 39/122/18 40/123/18
f 40/123/19 39/122/19 30/124/19 27/125/19
f 27/125/20 30/124/20 31/126/20 32/127/20
f 32/127/21 31/126/21 23/128/21 24/129/21
f 24/129/22 23/128/22 48/115/22 47/114/22
f 90/130/3 77/131/3 62/132/3 85/133/3
f 84/134/8 61/135/8 60/136/8 86/137/8
f 81/138/5 79/139/5 64/140/5 73/141/5
f 78/142/9 76/143/9 66/144/9 63/145/9
f 97/146/3 94/147/3 65/148/3 74/149/3
f 79/150/10 75/151/10 65/152/10 64/153/10
f 62/46/7 72/65/7 70/68/7 59/47/7
f 93/42/5 98/69/5 71/72/5 61/43/5
f 77/131/3 82/87/3 72/90/3 62/132/3
f 61/135/8 71/105/8 69/108/8 60/136/8
f 59/154/5 70/155/5 81/138/5 80/156/5
f 51/157/11 55/158/11 75/151/11 79/150/11
f 56/159/12 52/160/12 76/143/12 78/142/12
f 70/155/5 51/161/5 79/139/5 81/138/5
f 83/162/5 59/154/5 80/156/5 89/163/5
f 74/149/3 65/148/3 75/88/3 82/87/3
f 63/164/3 87/165/3 90/130/3 78/166/3
f 52/167/5 83/162/5 89/163/5 76/168/5
f 76/168/5 89/163/5 88/169/5 66/170/5
f 91/171/3 99/172/3 87/165/3 63/164/3
f 54/173/13 84/134/13 86/137/13 58/174/13
f 78/166/3 90/130/3 85/133/3 56/159/3
f 95/175/5 100/41/5 84/44/5 54/176/5
f 56/177/14 85/45/14 83/48/14 52/160/14
f 66/170/5 88/169/5 100/41/5 95/175/5
f 58/174/3 86/137/3 99/172/3 91/171/3
f 60/136/3 69/108/3 97/146/3 96/178/3
f 69/108/3 57/107/3 94/147/3 97/146/3
f 86/137/3 60/136/3 96/178/3 99/172/3
f 73/141/5 64/140/5 92/70/5 98/69/5
f 63/145/9 66/144/9 95/74/9 91/73/9
f 64/153/10 65/152/10 94/111/10 92/110/10
f 97/179/15 98/180/15 93/181/15 96/182/15
f 96/182/16 93/181/16 100/183/16 99/184/16
f 99/184/17 100/183/17 88/185/17 87/186/17
f 87/186/18 88/185/18 89/187/18 90/188/18
f 90/188/19 89/187/19 80/189/19 77/190/19
f 77/190/20 80/189/20 81/191/20 82/192/20
f 82/192/21 81/191/21 73/193/21 74/194/21
f 74/194/22 73/193/22 98/180/22 97/179/22
f 101/195/3 102/196/3 104/197/3 103/198/3
f 103/198/23 104/197/23 108/199/23 107/200/23
f 107/200/5 108/199/5 106/201/5 105/202/5
f 105/202/24 106/201/24 102/203/24 101/204/24
f 103/205/25 107/200/25 105/202/25 101/206/25
f 108/199/26 104/207/26 102/208/26 106/201/26
