# WaveFront *.obj file (generated by CINEMA 4D)

mtllib ./TVMM-unwrapped.mtl

v -100 124.05931854248047 100
v -100 346.21710205078125 100
v 225.31834411621094 124.05931854248047 100
v 225.31834411621094 346.21710205078125 100
v 225.31834411621094 124.05931854248047 -100
v 225.31834411621094 346.21710205078125 -100
v -100 124.05931854248047 -100
v -100 346.21710205078125 -100
v -75.89069366455078 111.87236022949219 -75.89069366455078
v -75.89069366455078 111.87236022949219 75.89069366455078
v 201.20904541015625 111.87236022949219 75.89069366455078
v 201.20904541015625 111.87236022949219 -75.89069366455078
v -70.29645538330078 79.30390167236328 -70.29645538330078
v -70.29645538330078 79.30390167236328 70.29645538330078
v 195.61480712890625 79.30390167236328 70.29645538330078
v 195.61480712890625 79.30390167236328 -70.29645538330078
v 165.45767211914062 346.21710205078125 100
v 156.79702758789062 131.7838134765625 105.11769104003906
v -90.25973510742188 132.74673461914062 105.36351013183594
v 157.19248962402344 338.84530639648438 105.02764892578125
v -91.19696807861328 338.3656005859375 105.15011596679688
v 175.8023681640625 200.97727966308594 101.20142364501953
v 214.97366333007812 200.81663513183594 101.20142364501953
v 165.45767211914062 124.05931854248047 100
v 146.57115173339844 140.90435791015625 104.30033111572266
v -81.11347198486328 140.90435791015625 104.30033111572266
v -81.11347198486328 329.3720703125 104.30033111572266
v 146.57115173339844 329.3720703125 104.30033111572266
v 135.49275207519531 152.115966796875 89.18842315673828
v -70.03507995605469 152.115966796875 89.18842315673828
v -70.03507995605469 318.16046142578125 89.18842315673828
v 135.49275207519531 318.16046142578125 89.18842315673828
v 171.46267700195312 323.13540649414062 103.72634887695312
v 219.31333923339844 323.13540649414062 103.72634887695312
v 219.31333923339844 130.0643310546875 103.72634887695312
v 171.46267700195312 130.0643310546875 103.72634887695312
v 171.46267700195312 196.65534973144531 103.72634887695312
v 219.31333923339844 196.4591064453125 103.72634887695312
v 175.8023681640625 318.79571533203125 101.20142364501953
v 214.97366333007812 318.79571533203125 101.20142364501953
# 40 vertices

vn 0 0 1
vn 1 0 0
vn 0 0 -1
vn -1 0 0
vn 0 1 0
vn 0 0 0
vn 0 -1 0
vn -0.16746835410595 -0.86132794618607 0.47965458035469
vn -0.23799754679203 -0.94165509939194 0.23799753189087
vn -0.23799754679203 -0.94165509939194 -0.23799754679203
vn 0.16763840615749 -0.85920691490173 0.48338478803635
vn 0.15767581760883 -0.93578398227692 0.31535157561302
vn -0.00015522575995 -0.73952913284302 0.67312449216843
vn 0.23799760639668 -0.94165509939194 -0.23799756169319
vn -0.98556637763977 -0.16928935050964 0
vn 0 -0.16928935050964 0.98556637763977
vn 0.98556637763977 -0.16928935050964 0
vn 0 -0.1692893654108 -0.98556637763977
vn 0.11753430962563 -0.11447612941265 0.98644864559174
vn -0.03686966001987 0.05527173355222 0.99779039621353
vn -0.03701597824693 -0.04239682108164 0.99841493368149
vn 0.1176365762949 0.12606693804264 0.98502218723297
vn -0.10544201731682 -0.11432172358036 0.98783224821091
vn 0.04999624192715 0.05554631724954 0.99720358848572
vn 0.04979907348752 -0.04217249155045 0.99786847829819
vn -0.10557341575623 0.12594419717789 0.98640370368958
vn 0.50289571285248 0 0.86434710025787
vn -0.49417734146118 -0.00070544792106 0.86936086416244
vn -0.00034102305654 0.55624568462372 0.83101785182953
vn 0.51402795314789 -0.00029819773044 0.85777336359024
vn 0 0.80310952663422 0.5958314538002
vn 0.80649846792221 0 0.5912361741066
vn 0 -0.80310952663422 0.5958314538002
vn -0.80649828910828 0 0.59123647212982
vn 0.27494621276855 0.08310788869858 0.95786100625992
vn -0.27494624257088 0.08310788869858 0.95786094665527
vn 0.52727138996124 0 0.84969693422318
vn 0 -0.52727091312408 0.8496972322464
vn -0.52727138996124 0 0.84969693422318
vn 0.0010680668056 0.26043283939362 0.96549135446548
vn 0 -0.50289571285248 0.86434710025787
vn -0.50289696455002 0 0.86434638500214
vn 0.0020624184981 0.50289130210876 0.86434721946716
# 43 normals

vt 0.45334681868553 0.59990471601486 0
vt 0.49025338888168 0.59990471601486 0
vt 0.49025338888168 0.4887467622757 0
vt 0.45334681868553 0.48889803886414 0
vt 0.50505340099335 0.41642713546753 0
vt 0.50505340099335 0.62574070692062 0
vt 0.69349020719528 0.62574070692062 0
vt 0.69349020719528 0.41642713546753 0
vt 1 0.62574070692062 0
vt 1 0.41642713546753 0
vt 0 0.41642713546753 0
vt 0 0.62574070692062 0
vt 0.1884368211031 0.62574070692062 0
vt 0.1884368211031 0.41642713546753 0
vt 0.5 0.81923091411591 0
vt 0.5 0.63079410791397 0
vt 0.44360023736954 0.63079410791397 0
vt 0.47201380133629 0.34121966362 0
vt 0.47201380133629 0.20875537395477 0
vt 0.22147643566132 0.20875537395477 0
vt 0.22147643566132 0.34121966362 0
vt 0.1934902369976 0.36920595169067 0
vt 0.21620564162731 0.34649050235748 0
vt 0.21620564162731 0.20348453521729 0
vt 0.1934902369976 0.18076908588409 0
vt 0.5 0.36920595169067 0
vt 0.47728458046913 0.34649050235748 0
vt 0.44360023736954 0.36920595169067 0
vt 0.5 0.18076908588409 0
vt 0.47728458046913 0.20348453521729 0
vt 0.16572140157223 0.40494477748871 0
vt 0.16045060753822 0.37425935268402 0
vt 0.02798620983958 0.37425935268402 0
vt 0.022715408355 0.40494477748871 0
vt 0.47728458046913 0.40494477748871 0
vt 0.47201380133629 0.37425935268402 0
vt 0.22147643566132 0.37425935268402 0
vt 0.21620564162731 0.40494477748871 0
vt 0.67077481746674 0.40494477748871 0
vt 0.66550403833389 0.37425935268402 0
vt 0.53303962945938 0.37425935268402 0
vt 0.52776885032654 0.40494477748871 0
vt 0.72147643566132 0.37425935268402 0
vt 0.71620565652847 0.40494477748871 0
vt 0.97728461027145 0.40494477748871 0
vt 0.97201377153397 0.37425935268402 0
vt 0.1934902369976 0.63079410791397 0
vt 0.1934902369976 0.81923091411591 0
vt 0.43544030189514 0.42370510101318 0
vt 0.42580562829971 0.43229830265045 0
vt 0.42580562829971 0.6098695397377 0
vt 0.43581289052963 0.61879509687424 0
vt 0.20266735553741 0.42461228370666 0
vt 0.21128481626511 0.43229830265045 0
vt 0.21128481626511 0.6098695397377 0
vt 0.20178431272507 0.61834311485291 0
vt 0.44925805926323 0.60399347543716 0
vt 0.44925805926323 0.48482596874237 0
vt 0.41536775231361 0.44286167621613 0
vt 0.22172269225121 0.44286167621613 0
vt 0.22172269225121 0.59930616617203 0
vt 0.41536775231361 0.59930616617203 0
vt 0.1934902369976 0.41642713546753 0
vt 0.44360023736954 0.41642713546753 0
vt 0.1934902369976 0.62574070692062 0
vt 0.44360023736954 0.62574070692062 0
vt 0.21128481626511 0.62674242258072 0
vt 0.22172269225121 0.64098060131073 0
vt 0.41536775231361 0.64098060131073 0
vt 0.42580562829971 0.62674242258072 0
vt 0.42580562829971 0.37325763702393 0
vt 0.41536775231361 0.35901939868927 0
vt 0.22172269225121 0.35901939868927 0
vt 0.21128481626511 0.37325763702393 0
vt 0.5 0.62574070692062 0
vt 0.49434217810631 0.60399347543716 0
vt 0.5 0.41642713546753 0
vt 0.49434217810631 0.42208504676819 0
vt 0.49434217810631 0.48464107513428 0
vt 0.44925805926323 0.42208504676819 0
# 80 texture coordinates

o Cube
usemtl default
f 22/4/1 23/3/1 40/2/1 39/1/1
f 5/8/2 6/7/2 4/6/2 3/5/2
f 7/10/3 8/9/3 6/7/3 5/8/3
f 1/14/4 2/13/4 8/12/4 7/11/4
f 17/17/5 4/16/5 6/15/5
f 14/21/7 13/20/7 16/19/7 15/18/7
f 7/25/10 9/24/10 10/23/9 1/22/8
f 24/28/13 11/27/12 3/26/11
f 3/26/11 11/27/12 12/30/14 5/29/14
f 9/24/10 7/25/10 5/29/14 12/30/14
f 9/34/15 13/33/15 14/32/15 10/31/15
f 10/38/16 14/37/16 15/36/16 11/35/16
f 11/42/17 15/41/17 16/40/17 12/39/17
f 13/46/18 9/45/18 12/44/18 16/43/18
f 24/28/13 1/22/8 10/23/9 11/27/12
f 6/15/5 8/48/5 2/47/5 17/17/5
f 20/52/22 28/51/21 25/50/20 18/49/19
f 18/49/19 25/50/20 26/54/24 19/53/23
f 21/56/26 27/55/25 28/51/21 20/52/22
f 19/53/23 26/54/24 27/55/25 21/56/26
f 37/58/27 22/4/27 39/1/27 33/57/27
f 32/62/1 31/61/1 30/60/1 29/59/1
f 24/64/13 18/49/19 19/53/23 1/63/8
f 1/63/28 19/53/23 21/56/26 2/65/28
f 2/65/29 21/56/26 20/52/22 17/66/29
f 17/66/30 20/52/22 18/49/19 24/64/30
f 25/70/31 29/69/31 30/68/31 26/67/31
f 26/54/32 30/60/32 31/61/32 27/55/32
f 27/74/33 31/73/33 32/72/33 28/71/33
f 28/51/34 32/62/34 29/59/34 25/50/34
f 17/66/36 33/57/36 34/76/35 4/75/35
f 38/79/37 35/78/37 3/77/37
f 3/77/11 35/78/38 36/80/38 24/64/13
f 24/64/39 36/80/39 37/58/39
f 37/58/39 33/57/36 17/66/36 24/64/39
f 37/58/40 36/80/1 35/78/1 38/79/40
f 3/77/37 4/75/35 34/76/35 38/79/37
f 33/57/41 39/1/41 40/2/41 34/76/41
f 34/76/42 40/2/42 23/3/42 38/79/42
f 38/79/40 23/3/43 22/4/43 37/58/40

